<svg width="64" height="65" viewBox="0 0 64 65" fill="none" xmlns="http://www.w3.org/2000/svg">
<g id="&#208;&#184;&#208;&#186;&#208;&#190;&#208;&#189;&#208;&#186;&#208;&#176; 5 ">
<g id="Group 358">
<ellipse id="Ellipse 109" cx="32" cy="32.3488" rx="32" ry="31.9455" fill="#8B8FFF"/>
<g id="Mask group">
<mask id="mask0_700_37" style="mask-type:alpha" maskUnits="userSpaceOnUse" x="0" y="0" width="64" height="65">
<ellipse id="Ellipse 129" cx="32" cy="32.3488" rx="32" ry="31.9455" fill="#8B8FFF"/>
</mask>
<g mask="url(#mask0_700_37)">
<ellipse id="Ellipse 127" cx="44.8001" cy="14.0942" rx="30.1714" ry="30.1201" fill="url(#paint0_radial_700_37)"/>
<g id="Ellipse 128" filter="url(#filter0_f_700_37)">
<ellipse cx="15.6376" cy="14.5794" rx="15.6376" ry="14.5794" transform="matrix(0.989691 -0.143222 0.143701 0.989621 18.2856 45.0428)" fill="url(#paint1_radial_700_37)"/>
</g>
</g>
</g>
</g>
<g id="Black">
<path id="Vector" d="M29.4389 12.4999C20.3988 13.6946 13.2278 20.8783 12.1173 29.8657C11.9609 31.1385 11.9609 33.5903 12.1173 34.863C13.1261 42.9993 19.2336 49.8785 27.1711 51.7915C29.0557 52.2522 29.6579 52.3147 32.0587 52.3147C33.9746 52.3147 34.3734 52.2913 35.2649 52.1351C39.042 51.4792 42.2717 49.9644 45.1105 47.5048C48.7234 44.3892 50.9912 40.3523 51.8201 35.6048C51.9765 34.7147 52 34.3243 52 32.3644C52 30.4045 51.9765 30.0141 51.8201 29.1239C51.2805 26.0318 50.1623 23.2989 48.4184 20.8549C45.1026 16.1933 40.1369 13.2105 34.5376 12.4999C33.3333 12.3438 30.5963 12.3438 29.4389 12.4999ZM34.2874 14.9205C38.6588 15.4983 42.6706 17.6925 45.4858 21.0423C48.1994 24.2671 49.6149 28.1479 49.6149 32.3644C49.6149 35.9016 48.6452 39.1342 46.7292 42.0155C43.39 47.0363 37.9785 49.9488 31.9883 49.941C27.2493 49.9332 22.9482 48.145 19.5855 44.7796C16.1994 41.4064 14.4242 37.1275 14.4242 32.3644C14.4242 29.1161 15.2297 26.1489 16.8485 23.4394C20.477 17.3489 27.3275 14.0069 34.2874 14.9205Z" fill="#1D22C2"/>
<path id="Vector_2" d="M29.7517 17.263C23.0811 18.2781 17.8729 23.5019 16.8954 30.1858C16.7312 31.279 16.7312 33.4497 16.8954 34.5429C17.8807 41.2502 23.128 46.4975 29.8377 47.4735C30.9325 47.6297 33.1143 47.6297 34.2013 47.4657C39.1124 46.7473 43.304 43.7645 45.5796 39.384C46.4086 37.7911 46.8856 36.3076 47.1437 34.5429C47.3079 33.4497 47.3079 31.279 47.1437 30.1858C46.1583 23.455 40.9423 18.2468 34.2013 17.263C33.1534 17.1068 30.7839 17.1068 29.7517 17.263ZM33.1691 19.5899C35.1867 19.707 37.6187 20.6128 39.5269 21.9636C40.4731 22.6351 41.7634 23.9235 42.436 24.8683C43.1319 25.8444 43.8983 27.3514 44.2502 28.4524C44.6725 29.7485 44.8446 30.8886 44.8446 32.3643C44.8446 34.5038 44.4301 36.2607 43.4682 38.1425C42.8035 39.4387 42.0919 40.4226 41.0909 41.422C38.651 43.8582 35.4604 45.1778 32.0195 45.1778C29.3059 45.1778 26.7488 44.358 24.5122 42.7651C23.566 42.0935 22.2756 40.8052 21.6031 39.8604C20.4926 38.3065 19.6637 36.3232 19.3509 34.496C19.1398 33.2701 19.1398 31.4586 19.3509 30.2327C19.6637 28.4055 20.4926 26.4222 21.6031 24.8683C23.7458 21.8543 27.4291 19.8085 31.1202 19.5665C31.5972 19.5352 32.0899 19.5196 32.215 19.5352C32.348 19.543 32.7703 19.5743 33.1691 19.5899Z" fill="#1D22C2"/>
<path id="Vector_3" d="M31.6051 21.8543C30.9717 22.0886 30.8466 22.3385 30.8466 23.4004V24.2046L30.2366 24.3452C28.6882 24.6888 27.2024 25.7663 26.5846 26.9688C26.1232 27.8824 26.0137 29.0927 26.3109 30.0375C26.7723 31.5445 28.2972 32.8407 30.1662 33.317L30.8466 33.4966V35.7532V38.002L30.6354 37.9473C29.9003 37.7756 29.0167 37.1353 28.7351 36.5809C28.6569 36.4325 28.5709 36.1046 28.5396 35.8625C28.438 35.0817 28.0313 34.6756 27.3275 34.6756C26.5455 34.6756 26.1545 35.1207 26.1545 36.0031C26.1545 37.9473 27.8046 39.7355 30.1662 40.3445L30.8466 40.5241V41.344C30.8466 42.2419 30.9326 42.4684 31.3627 42.7573C31.6677 42.9603 32.3715 42.9603 32.6765 42.7573C33.1066 42.4684 33.1926 42.2419 33.1926 41.344V40.5241L33.8808 40.3445C34.8661 40.0868 35.742 39.6339 36.4145 39.0171C37.4468 38.0567 37.8847 37.1275 37.8847 35.8859C37.8847 34.0978 36.8837 32.6767 34.9834 31.7866C34.4282 31.5211 33.6227 31.2712 33.3334 31.2712C33.2004 31.2712 33.1926 31.1307 33.1926 28.9677V26.6643L33.6462 26.8361C34.7879 27.2577 35.3823 27.9136 35.4996 28.874C35.6403 30.0219 36.8681 30.4279 37.6501 29.5924C37.8143 29.4206 37.8456 29.2957 37.8691 28.8116C37.9551 27.1718 36.8681 25.6414 34.9834 24.759C34.4282 24.4936 33.6227 24.2437 33.3334 24.2437C33.2083 24.2437 33.1926 24.1578 33.1926 23.4004C33.1926 22.7133 33.1692 22.518 33.0362 22.315C32.7703 21.87 32.1291 21.6669 31.6051 21.8543ZM30.8466 28.8194V30.9745L30.6354 30.9198C29.8925 30.7402 29.0167 30.1078 28.7273 29.5377C28.4067 28.9131 28.5866 28.1401 29.1809 27.5622C29.5172 27.2343 30.2757 26.8204 30.8309 26.6721C30.8388 26.6643 30.8466 27.6325 30.8466 28.8194ZM34.3735 34.2071C35.3275 34.8006 35.7107 35.7766 35.3119 36.5653C35.0225 37.1353 34.1467 37.7677 33.4116 37.9473L33.1926 38.002V35.8469V33.6918L33.6462 33.8636C33.8886 33.9495 34.2171 34.1056 34.3735 34.2071Z" fill="#1D22C2"/>
</g>
</g>
<defs>
<filter id="filter0_f_700_37" x="10.2378" y="32.6282" width="51.2388" height="49.206" filterUnits="userSpaceOnUse" color-interpolation-filters="sRGB">
<feFlood flood-opacity="0" result="BackgroundImageFix"/>
<feBlend mode="normal" in="SourceGraphic" in2="BackgroundImageFix" result="shape"/>
<feGaussianBlur stdDeviation="5" result="effect1_foregroundBlur_700_37"/>
</filter>
<radialGradient id="paint0_radial_700_37" cx="0" cy="0" r="1" gradientUnits="userSpaceOnUse" gradientTransform="translate(44.8001 14.0942) rotate(90) scale(30.1201 30.1714)">
<stop stop-color="#B0CFFF"/>
<stop offset="1" stop-color="#B0CFFF" stop-opacity="0"/>
</radialGradient>
<radialGradient id="paint1_radial_700_37" cx="0" cy="0" r="1" gradientUnits="userSpaceOnUse" gradientTransform="translate(15.6376 14.5794) rotate(90) scale(14.5794 15.6376)">
<stop stop-color="#3B3FB4"/>
<stop offset="1" stop-color="#3B3FB4" stop-opacity="0"/>
</radialGradient>
</defs>
</svg>
