<svg width="64" height="64" viewBox="0 0 64 64" fill="none" xmlns="http://www.w3.org/2000/svg">
<g id="Group 362">
<g id="Group 354">
<ellipse id="Ellipse 109" cx="32" cy="32.0163" rx="32" ry="31.9455" fill="#8B8FFF"/>
<g id="Mask group">
<mask id="mask0_700_51" style="mask-type:alpha" maskUnits="userSpaceOnUse" x="0" y="0" width="64" height="64">
<ellipse id="Ellipse 129" cx="32" cy="32.0163" rx="32" ry="31.9455" fill="#8B8FFF"/>
</mask>
<g mask="url(#mask0_700_51)">
<ellipse id="Ellipse 127" cx="44.8001" cy="13.7617" rx="30.1714" ry="30.1201" fill="url(#paint0_radial_700_51)"/>
<g id="Ellipse 128" filter="url(#filter0_f_700_51)">
<ellipse cx="15.6376" cy="14.5794" rx="15.6376" ry="14.5794" transform="matrix(0.989691 -0.143222 0.143701 0.989621 18.2856 44.7102)" fill="url(#paint1_radial_700_51)"/>
</g>
</g>
</g>
</g>
<g id="Black">
<path id="Vector" d="M29.4988 12.1538C26.0283 12.583 22.8393 13.8706 19.9629 16.001C18.7904 16.875 16.8363 18.826 15.9609 19.9965C13.8036 22.8995 12.5296 26.0757 12.0997 29.5952C11.9668 30.7501 11.9668 33.2785 12.0997 34.4335C12.5296 37.953 13.8036 41.1291 15.9609 44.0321C16.8363 45.2027 18.7904 47.1536 19.9629 48.0276C22.8705 50.1815 26.0518 51.4535 29.5769 51.8827C30.7338 52.0153 33.2662 52.0153 34.4231 51.8827C37.9482 51.4535 41.1295 50.1815 44.0371 48.0276C45.2096 47.1536 47.1637 45.2027 48.0391 44.0321C50.1964 41.1291 51.4704 37.953 51.9003 34.4335C52.0332 33.2785 52.0332 30.7501 51.9003 29.5952C51.4704 26.0757 50.1964 22.8995 48.0391 19.9965C47.1637 18.826 45.2096 16.875 44.0371 16.001C41.1295 13.8472 37.9482 12.5752 34.4231 12.146C33.3053 12.0133 30.6087 12.0211 29.4988 12.1538ZM30.7494 18.5607V22.5094L29.3268 22.4547C27.9668 22.4079 24.9106 22.1504 24.8403 22.0801C24.8246 22.0645 24.9653 21.6587 25.1607 21.1749C26.2237 18.5138 27.7401 16.3912 29.3112 15.3455C29.8271 15.0021 30.4993 14.6588 30.7338 14.612C30.7416 14.612 30.7494 16.3912 30.7494 18.5607ZM33.7899 14.8149C34.3527 15.049 35.361 15.8059 35.9707 16.4458C36.7758 17.2964 37.5887 18.506 38.2218 19.8015C38.6673 20.7223 39.2301 22.0958 39.1754 22.1504C39.1128 22.205 36.0801 22.4235 34.7201 22.4625L33.1724 22.5172V18.5607V14.6042L33.3522 14.6588C33.446 14.6822 33.6414 14.7602 33.7899 14.8149ZM25.0591 16.2273C24.1837 17.4447 23.3004 19.1381 22.7455 20.6599C22.5892 21.0891 22.425 21.5105 22.3937 21.6041L22.3234 21.768L21.2369 21.5573C19.8769 21.292 18.3996 20.9174 18.3996 20.8393C18.3996 20.7223 20.4709 18.6933 21.0181 18.2641C22.0107 17.4915 23.0347 16.8438 24.1759 16.2742C24.8012 15.962 25.3327 15.7045 25.3718 15.7045C25.4108 15.7045 25.2623 15.9386 25.0591 16.2273ZM39.8241 16.2742C41.4812 17.1014 42.8412 18.0534 44.1466 19.2942C44.85 19.9575 45.7098 20.933 45.6473 20.9876C45.5848 21.0501 44.0606 21.4012 42.849 21.6275L41.6922 21.846L41.5672 21.4871C40.7465 19.2162 39.871 17.4681 38.8705 16.1259C38.6986 15.8918 38.5892 15.7045 38.6282 15.7045C38.6595 15.7045 39.1988 15.962 39.8241 16.2742ZM18.5169 23.438C19.0327 23.5707 19.9394 23.7736 20.5335 23.8984C21.1275 24.0155 21.6277 24.1247 21.6434 24.1403C21.659 24.1559 21.6043 24.5071 21.5183 24.9129C21.1979 26.4659 21.0572 27.6286 20.8539 30.2351L20.807 30.8438H17.6023H14.4055L14.4524 30.3911C14.7259 27.9876 15.2418 26.2083 16.2579 24.1559L16.8442 22.9698L17.2115 23.0868C17.4148 23.1493 18.001 23.3053 18.5169 23.438ZM47.7811 24.2262C48.7504 26.1771 49.2584 27.9486 49.5398 30.3521L49.5945 30.7657H46.3898H43.193L43.1461 30.2741C43.1226 30.0088 43.0679 29.2986 43.021 28.6977C42.9272 27.5194 42.724 26.0835 42.4895 24.9285L42.341 24.2106L42.5051 24.1716C42.5911 24.1481 43.2868 24.0155 44.0371 23.8594C44.7875 23.7111 45.7724 23.4848 46.2257 23.36C46.679 23.2429 47.0855 23.1337 47.1324 23.1259C47.1871 23.1259 47.4763 23.6175 47.7811 24.2262ZM26.5677 24.7178C27.3415 24.7802 28.5999 24.8583 29.3581 24.8895L30.7494 24.9363V27.8549V30.7657H26.9976H23.2457L23.2848 30.1961C23.4411 28.1437 23.6522 26.5127 23.9179 25.3031C23.9805 25.0222 24.043 24.7256 24.0664 24.632C24.0977 24.4837 24.129 24.4759 24.6292 24.5383C24.9262 24.5695 25.7938 24.6554 26.5677 24.7178ZM39.9883 24.8739C40.3478 26.6063 40.5901 28.3778 40.7074 30.118L40.7465 30.7657H37.0024H33.2506V27.8393V24.9129H34.1104C35.1343 24.9129 37.2995 24.788 38.6439 24.6398C39.9492 24.5071 39.9179 24.4993 39.9883 24.8739ZM20.8539 33.6687C21.0337 35.846 21.0884 36.3844 21.2213 37.2584C21.3464 38.1169 21.5105 38.9831 21.6434 39.5606C21.6825 39.7088 21.6356 39.7322 21.1119 39.8181C20.3381 39.9429 18.2745 40.4034 17.446 40.6297L16.7582 40.8248L16.5706 40.497C15.9218 39.3967 15.2184 37.555 14.8588 36.0333C14.6947 35.3387 14.4133 33.5907 14.4133 33.2551C14.4133 33.2161 15.6483 33.1849 17.6102 33.1849H20.807L20.8539 33.6687ZM30.8276 36.1035V38.9363L29.5222 38.9909C28.7953 39.0221 27.4744 39.1001 26.5677 39.1704C25.6688 39.2406 24.7386 39.303 24.5042 39.303L24.0821 39.3108L23.9805 38.8816C23.7069 37.7111 23.4333 35.6743 23.2926 33.7858L23.2535 33.2629H27.0366H30.8276V36.1035ZM40.7074 33.7858C40.6214 34.9563 40.5042 36.0879 40.3556 37.0399C40.1993 38.0466 39.9414 39.3342 39.8788 39.3967C39.8554 39.4123 39.3708 39.3811 38.7924 39.3108C37.8075 39.2094 36.3068 39.1001 34.1729 38.9909L33.2506 38.9441V36.1035V33.2629H37.0024H40.7465L40.7074 33.7858ZM49.5398 33.6687C49.2584 36.0723 48.7582 37.8047 47.7811 39.7947C47.4763 40.4112 47.2106 40.9106 47.1793 40.9106C47.148 40.9106 46.7728 40.8092 46.3429 40.6843C45.4988 40.4424 43.7948 40.0522 42.8881 39.8883C42.5755 39.8337 42.3175 39.7869 42.3175 39.7713C42.3175 39.7635 42.3879 39.4201 42.4739 39.0143C42.7787 37.5004 43.0992 35.1124 43.0992 34.254C43.0992 34.0277 43.1226 33.7155 43.1461 33.5517L43.2008 33.2629H46.3977H49.5945L49.5398 33.6687ZM30.7494 45.3197C30.7494 47.4892 30.7338 49.2606 30.7103 49.2606C30.5774 49.2606 29.6004 48.7612 29.2174 48.4959C28.3341 47.9028 27.1461 46.5449 26.4582 45.3744C25.6766 44.0321 24.7308 41.8627 24.8872 41.769C24.9809 41.7144 28.256 41.4569 29.2643 41.4335C29.6317 41.4178 30.1163 41.4022 30.3429 41.3944L30.7494 41.3788V45.3197ZM35.5173 41.4959C36.385 41.5349 39.1285 41.769 39.1676 41.8002C39.1832 41.8158 39.0503 42.1748 38.8862 42.604C37.6277 45.8192 35.8065 48.1447 33.829 49.0343C33.5554 49.1592 33.3131 49.2606 33.2897 49.2606C33.2662 49.2606 33.2506 47.4892 33.2506 45.3197V41.371L33.9384 41.41C34.3136 41.4335 35.0249 41.4725 35.5173 41.4959ZM22.6751 43.0566C23.3161 44.7969 24.2384 46.5605 25.1685 47.8325L25.5828 48.3944L25.3327 48.3086C25.192 48.2539 24.6292 47.9886 24.0664 47.7077C22.9956 47.1614 21.9326 46.4825 21.0181 45.7567C19.7987 44.7813 18.1417 43.041 18.3371 42.9318C18.6106 42.7913 21.9717 42.0734 22.2218 42.1046C22.2765 42.1124 22.4719 42.526 22.6751 43.0566ZM42.9819 42.3933C44.1856 42.6352 45.5848 42.9786 45.6473 43.041C45.7098 43.0957 44.8422 44.0789 44.1466 44.7344C42.8725 45.944 41.4968 46.9117 39.9336 47.7077C39.3786 47.9886 38.808 48.2539 38.6673 48.3086L38.4172 48.3944L38.8236 47.8325C39.7694 46.5449 40.7152 44.7344 41.317 43.08C41.5046 42.5728 41.6922 42.1592 41.7313 42.1592C41.7782 42.1592 42.341 42.2685 42.9819 42.3933Z" fill="#1D22C2"/>
</g>
</g>
<defs>
<filter id="filter0_f_700_51" x="10.2378" y="32.2957" width="51.2388" height="49.206" filterUnits="userSpaceOnUse" color-interpolation-filters="sRGB">
<feFlood flood-opacity="0" result="BackgroundImageFix"/>
<feBlend mode="normal" in="SourceGraphic" in2="BackgroundImageFix" result="shape"/>
<feGaussianBlur stdDeviation="5" result="effect1_foregroundBlur_700_51"/>
</filter>
<radialGradient id="paint0_radial_700_51" cx="0" cy="0" r="1" gradientUnits="userSpaceOnUse" gradientTransform="translate(44.8001 13.7617) rotate(90) scale(30.1201 30.1714)">
<stop stop-color="#B0CFFF"/>
<stop offset="1" stop-color="#B0CFFF" stop-opacity="0"/>
</radialGradient>
<radialGradient id="paint1_radial_700_51" cx="0" cy="0" r="1" gradientUnits="userSpaceOnUse" gradientTransform="translate(15.6376 14.5794) rotate(90) scale(14.5794 15.6376)">
<stop stop-color="#3B3FB4"/>
<stop offset="1" stop-color="#3B3FB4" stop-opacity="0"/>
</radialGradient>
</defs>
</svg>
