<svg width="64" height="65" viewBox="0 0 64 65" fill="none" xmlns="http://www.w3.org/2000/svg">
<g id="&#208;&#184;&#208;&#186;&#208;&#190;&#208;&#189;&#208;&#186;&#208;&#176; 2 ">
<g id="Group 355">
<ellipse id="Ellipse 109" cx="32" cy="32.8493" rx="32" ry="31.9455" fill="#8B8FFF"/>
<g id="Mask group">
<mask id="mask0_700_64" style="mask-type:alpha" maskUnits="userSpaceOnUse" x="0" y="0" width="64" height="65">
<ellipse id="Ellipse 129" cx="32" cy="32.8493" rx="32" ry="31.9455" fill="#8B8FFF"/>
</mask>
<g mask="url(#mask0_700_64)">
<ellipse id="Ellipse 127" cx="44.8001" cy="14.5947" rx="30.1714" ry="30.1201" fill="url(#paint0_radial_700_64)"/>
<g id="Ellipse 128" filter="url(#filter0_f_700_64)">
<ellipse cx="15.6376" cy="14.5794" rx="15.6376" ry="14.5794" transform="matrix(0.989691 -0.143222 0.143701 0.989621 18.2856 45.5433)" fill="url(#paint1_radial_700_64)"/>
</g>
</g>
</g>
</g>
<g id="Black">
<path id="Vector" d="M29.4999 12.9386C24.539 13.5131 19.9453 15.6282 16.9062 18.7509C16.3515 19.3255 16.1953 19.5337 16.1406 19.8001C15.9921 20.4996 16.4218 21.2657 17.0312 21.3906C17.539 21.4906 17.914 21.299 18.5624 20.6329C22.8281 16.2528 30.1171 14.4208 36.9218 16.0196C40.3437 16.8273 43.2656 18.4095 45.4374 20.6329C45.8437 21.0492 46.1328 21.274 46.3515 21.3407C46.9296 21.5239 47.4843 21.2907 47.7499 20.7328C47.8984 20.4413 47.914 19.7835 47.7968 19.5337C47.6484 19.2422 46.3984 18.0348 45.5312 17.352C42.7812 15.1619 39.4062 13.7213 35.5546 13.0801C34.7578 12.9469 34.0624 12.9053 32.3515 12.8886C31.1484 12.8719 29.8671 12.8969 29.4999 12.9386Z" fill="#1D22C2"/>
<path id="Vector_2" d="M50.2812 20.991C50.1328 21.0659 49.9297 21.2575 49.8359 21.4157L49.6562 21.6988V26.1538C49.6562 30.4756 49.6641 30.6172 49.8125 30.8753C50.2266 31.5915 51.3672 31.5998 51.8281 30.892L52 30.6172V26.1538V21.6988L51.8203 21.4157C51.6094 21.0743 51.2031 20.8411 50.8281 20.8411C50.6797 20.8411 50.4297 20.9077 50.2812 20.991Z" fill="#1D22C2"/>
<path id="Vector_3" d="M12.625 23.6556C12.4766 23.7306 12.2734 23.9221 12.1797 24.0803L12 24.3634V30.1508C12 35.8799 12 35.9382 12.1641 36.2213C12.4766 36.7543 12.6094 36.7876 14.6172 36.7792C16.2578 36.7709 16.4531 36.7626 16.875 36.596C18.2188 36.0714 19.125 34.9056 19.3516 33.4317C19.5234 32.3076 19.1797 31.0418 18.4688 30.2091L18.1094 29.7927L18.3438 29.3681C18.4688 29.1349 18.625 28.6603 18.6875 28.3272C19.1094 26.2037 17.8047 24.0387 15.8438 23.5973C15.6172 23.5474 14.8594 23.5057 14.1641 23.5057C13.1172 23.5057 12.8516 23.5307 12.625 23.6556ZM15.4453 26.1788C15.9922 26.3786 16.3125 26.8699 16.3125 27.5111C16.3125 28.3438 15.7656 28.8351 14.8516 28.8351H14.3438V27.4611V26.0872H14.7656C14.9922 26.0872 15.2969 26.1288 15.4453 26.1788ZM16.0234 31.5081C16.8672 31.758 17.2344 32.9071 16.7031 33.6565C16.4062 34.0812 16.0938 34.2061 15.1875 34.2395L14.3438 34.2644V32.8405V31.4165H15.0312C15.4062 31.4165 15.8516 31.4582 16.0234 31.5081Z" fill="#1D22C2"/>
<path id="Vector_4" d="M21.3906 23.6807C21.1641 23.8056 21.0078 23.9638 20.9063 24.1803C20.7578 24.4884 20.75 24.7049 20.75 30.1259C20.75 36.2047 20.7422 36.0715 21.1641 36.4878C21.5469 36.8626 22.3828 36.8459 22.7734 36.4712C23.1797 36.0715 23.1719 36.1631 23.1719 30.1509C23.1719 24.6716 23.1719 24.5467 23.0078 24.2053C22.8906 23.9471 22.7578 23.8056 22.5156 23.6807C22.0938 23.4558 21.8125 23.4642 21.3906 23.6807Z" fill="#1D22C2"/>
<path id="Vector_5" d="M25.5546 23.6224C25.2343 23.7723 24.9062 24.1969 24.8515 24.53C24.8281 24.6799 24.8124 27.3113 24.8281 30.3923C24.8515 35.9299 24.8515 35.9882 25.0156 36.2214C25.2656 36.5794 25.6171 36.7626 26.0624 36.7626C26.5468 36.7543 26.8515 36.5711 27.0703 36.1631C27.2265 35.8716 27.2343 35.7217 27.2343 33.9064L27.2421 31.9579L27.9687 34.0147C28.3749 35.1472 28.7578 36.1714 28.8281 36.288C29.2499 36.9791 30.4374 36.9125 30.8515 36.1797C30.9765 35.9466 30.9843 35.5052 30.9843 30.1509C30.9843 24.5134 30.9765 24.3718 30.8281 24.1053C30.6562 23.8056 30.1484 23.5141 29.7968 23.5058C29.3515 23.5058 28.8671 23.8306 28.6953 24.2552C28.6406 24.3718 28.5859 25.2462 28.5624 26.3204L28.5234 28.1773L27.8281 26.1955C27.4453 25.1046 27.0703 24.1137 26.9921 23.9971C26.8281 23.7473 26.3281 23.5058 25.9999 23.5058C25.8828 23.5141 25.6796 23.5641 25.5546 23.6224Z" fill="#1D22C2"/>
<path id="Vector_6" d="M35.4766 23.5974C34.547 23.7472 33.6173 24.4051 33.1485 25.2628C32.7188 26.0455 32.6954 26.3203 32.7188 30.3923L32.7423 34.1229L33.0001 34.7141C33.4298 35.6967 34.2423 36.4045 35.2266 36.6627C35.7579 36.8126 36.8595 36.7293 37.3907 36.5128C38.2579 36.1464 38.9063 35.4302 39.2735 34.431C39.4298 34.0063 39.4532 33.8064 39.4532 32.4991C39.461 31.1001 39.4532 31.0335 39.2813 30.767C38.9923 30.334 38.6954 30.2174 37.922 30.2091C37.3595 30.2091 37.211 30.2341 37.0235 30.384C36.3204 30.9419 36.2501 31.9578 36.8829 32.4824C37.2423 32.7822 37.0782 33.6482 36.6016 34.023C36.3673 34.2062 35.8595 34.2311 35.5938 34.0812C35.5001 34.0313 35.3595 33.8647 35.2813 33.7232C35.1329 33.4734 35.1251 33.2735 35.1251 30.0925V26.7367L35.3829 26.4619C35.711 26.1122 36.1016 26.0206 36.4766 26.2121C36.836 26.3953 36.9923 26.6534 37.0782 27.2363C37.1641 27.7859 37.336 28.069 37.711 28.2689C38.3126 28.602 39.0157 28.3688 39.3282 27.7443C39.4845 27.4362 39.5079 27.3029 39.4688 26.8783C39.2657 24.6632 37.5626 23.2643 35.4766 23.5974Z" fill="#1D22C2"/>
<path id="Vector_7" d="M43.6797 23.589C42.2578 23.8221 41.2109 24.8963 40.9141 26.4035C40.7969 27.0031 40.7969 33.3317 40.9141 33.9313C41.1328 35.0471 41.75 35.8965 42.6875 36.3878C43.2734 36.7042 43.2891 36.7042 44.2188 36.7042C45.1172 36.7042 45.1875 36.6876 45.6875 36.4378C46.6562 35.9465 47.3359 35.0471 47.5469 33.9646C47.6016 33.6731 47.625 32.3158 47.6094 29.9093C47.5781 25.8706 47.5859 25.9039 47.0078 25.0046C46.3359 23.9637 44.9531 23.3724 43.6797 23.589ZM44.6172 26.2037C44.7656 26.2703 44.9609 26.4535 45.0469 26.6034C45.1953 26.8699 45.2031 27.0114 45.2031 30.1508C45.2031 33.7231 45.1953 33.7814 44.75 34.0312C44.3047 34.281 43.9375 34.2311 43.5781 33.8813L43.2891 33.5982L43.2656 30.2757C43.2422 26.5617 43.25 26.5451 43.7969 26.237C44.125 26.0538 44.2656 26.0538 44.6172 26.2037Z" fill="#1D22C2"/>
<path id="Vector_8" d="M50.3125 33.6566C50.2266 33.6982 50.0469 33.8647 49.9062 34.0313C49.6641 34.3311 49.6562 34.356 49.6562 35.1305C49.6562 36.0298 49.7578 36.3296 50.1484 36.5794C50.4531 36.7792 51.125 36.8042 51.4609 36.621C51.8828 36.3879 52 36.0548 52 35.1388V34.3227L51.6953 33.9813C51.4219 33.6649 51.3594 33.6316 50.9375 33.6066C50.6875 33.5983 50.4062 33.6149 50.3125 33.6566Z" fill="#1D22C2"/>
<path id="Vector_9" d="M16.7265 39.0691C16.2031 39.4106 15.9999 39.9268 16.1484 40.5347C16.2499 40.9677 17.0859 41.8421 18.3671 42.8663C19.8984 44.0904 21.8593 45.2312 23.6015 45.9057C23.9921 46.0556 24.3359 46.2138 24.3749 46.2472C24.4999 46.3637 24.1953 47.3963 23.7578 48.3623C23.3984 49.145 23.0078 49.7779 22.2187 50.8354C21.8359 51.3517 21.9921 52.2427 22.539 52.6258C22.8984 52.8839 23.5937 52.8756 24.6249 52.6174C26.9062 52.0262 29.4296 50.469 31.8046 48.1874L32.5156 47.5129L33.4453 47.4546C38.7421 47.1215 43.7499 44.9481 47.1874 41.4923C47.7421 40.9344 47.8749 40.668 47.8749 40.135C47.8749 39.269 47.039 38.6778 46.2578 38.9942C46.1406 39.0442 45.7421 39.3689 45.3671 39.727C42.8437 42.1419 39.8984 43.6824 36.3124 44.4568C35.1874 44.6983 33.4765 44.9065 32.5781 44.9065C31.5937 44.9065 31.5156 44.9398 30.7734 45.6726C29.3281 47.0965 27.8593 48.2707 26.6015 49.0201L26.0859 49.3199L26.3437 48.5704C26.6796 47.6211 26.8437 46.8134 26.8984 45.8141C26.9453 44.9231 26.8437 44.5318 26.4765 44.2819C26.3749 44.207 25.7734 43.9572 25.1406 43.7324C22.6484 42.833 20.4921 41.509 18.6406 39.7436C18.2656 39.3773 17.8593 39.0442 17.7421 38.9942C17.4218 38.861 16.9843 38.8943 16.7265 39.0691Z" fill="#1D22C2"/>
</g>
</g>
<defs>
<filter id="filter0_f_700_64" x="10.2378" y="33.1288" width="51.2388" height="49.206" filterUnits="userSpaceOnUse" color-interpolation-filters="sRGB">
<feFlood flood-opacity="0" result="BackgroundImageFix"/>
<feBlend mode="normal" in="SourceGraphic" in2="BackgroundImageFix" result="shape"/>
<feGaussianBlur stdDeviation="5" result="effect1_foregroundBlur_700_64"/>
</filter>
<radialGradient id="paint0_radial_700_64" cx="0" cy="0" r="1" gradientUnits="userSpaceOnUse" gradientTransform="translate(44.8001 14.5947) rotate(90) scale(30.1201 30.1714)">
<stop stop-color="#B0CFFF"/>
<stop offset="1" stop-color="#B0CFFF" stop-opacity="0"/>
</radialGradient>
<radialGradient id="paint1_radial_700_64" cx="0" cy="0" r="1" gradientUnits="userSpaceOnUse" gradientTransform="translate(15.6376 14.5794) rotate(90) scale(14.5794 15.6376)">
<stop stop-color="#3B3FB4"/>
<stop offset="1" stop-color="#3B3FB4" stop-opacity="0"/>
</radialGradient>
</defs>
</svg>
