<svg width="64" height="65" viewBox="0 0 64 65" fill="none" xmlns="http://www.w3.org/2000/svg">
<g id="&#208;&#184;&#208;&#186;&#208;&#190;&#208;&#189;&#208;&#186;&#208;&#176; 3 ">
<g id="Mask group">
<mask id="mask0_700_65" style="mask-type:alpha" maskUnits="userSpaceOnUse" x="0" y="0" width="64" height="65">
<ellipse id="Ellipse 129" cx="32" cy="32.6995" rx="32" ry="31.9455" fill="#8B8FFF"/>
</mask>
<g mask="url(#mask0_700_65)">
<ellipse id="Ellipse 127" cx="44.8001" cy="14.4449" rx="30.1714" ry="30.1201" fill="url(#paint0_radial_700_65)"/>
<g id="Ellipse 128" filter="url(#filter0_f_700_65)">
<ellipse cx="15.6376" cy="14.5794" rx="15.6376" ry="14.5794" transform="matrix(0.989691 -0.143222 0.143701 0.989621 18.2856 45.3935)" fill="url(#paint1_radial_700_65)"/>
</g>
</g>
</g>
<g id="Black">
<path id="Vector" d="M29.4977 11.8406C25.8888 12.3089 22.7955 13.5811 19.8115 15.8132C18.9522 16.4532 16.9994 18.3653 16.3354 19.2082C13.9997 22.1818 12.5702 25.5768 12.1172 29.206C11.9609 30.4781 11.9609 32.9288 12.1172 34.201C13.1092 42.2476 19.0772 49.0454 26.9043 51.0668C28.5838 51.4961 29.5368 51.6209 31.5365 51.66C34.2159 51.7146 36.0047 51.4649 38.3091 50.7C45.1207 48.4445 50.2138 42.6846 51.6433 35.6448C52.0105 33.8498 52.1042 31.0869 51.8777 29.206C50.7528 20.176 43.535 12.9645 34.4971 11.8406C33.3254 11.7002 30.5835 11.7002 29.4977 11.8406ZM33.4191 13.7138C36.1844 13.8699 39.4652 14.9937 41.8946 16.6093C46.0972 19.419 48.9171 23.6881 49.8154 28.6441C50.0263 29.7991 50.1045 32.4605 49.9639 33.6624C49.4952 37.7833 47.636 41.5998 44.6755 44.5187C41.754 47.4064 38.106 49.1625 33.9893 49.6542C33.0754 49.7712 30.9038 49.7634 29.9664 49.6542C23.9594 48.9361 18.7179 45.307 15.9448 39.9452C15.0855 38.2906 14.5153 36.6204 14.1716 34.7239C14.0154 33.8888 13.9919 33.5142 13.9919 31.7035C13.9919 29.3777 14.0935 28.6128 14.6247 26.7709C16.7416 19.4034 23.311 14.1274 30.9429 13.6747C31.4584 13.6435 32.0599 13.6357 32.2708 13.6435C32.4895 13.6591 33.0051 13.6903 33.4191 13.7138Z" fill="#1D22C2"/>
<path id="Vector_2" d="M37.5982 19.3721C36.489 19.536 35.4813 19.7077 35.3563 19.7623C34.7158 20.0277 34.6767 21.1281 35.2938 21.4481C35.575 21.5886 36.0515 21.5808 37.2155 21.4091C37.7388 21.331 38.1685 21.292 38.1685 21.3076C38.1685 21.4091 36.7468 23.2276 36.0281 24.0471C32.5129 28.043 28.1854 30.6186 21.9596 32.4058C21.1941 32.6244 20.4989 32.8429 20.4208 32.8819C20.0927 33.0614 19.9208 33.8185 20.1161 34.1931C20.2489 34.4272 20.6629 34.6692 20.9519 34.6692C21.5456 34.6692 25.3732 33.4283 27.2558 32.6322C32.1692 30.5327 36.0359 27.5201 39.1449 23.3524C39.348 23.0715 39.5433 22.8139 39.5745 22.7827C39.6058 22.7515 39.6917 23.1729 39.7698 23.7193C39.9182 24.8197 40.0276 25.0851 40.4025 25.2646C40.9259 25.5143 41.5196 25.2958 41.7305 24.7807C41.8477 24.5153 41.8321 24.3436 41.5196 22.1505C41.3399 20.855 41.1368 19.6843 41.0743 19.5438C40.8166 18.9662 40.465 18.9506 37.5982 19.3721Z" fill="#1D22C2"/>
<path id="Vector_3" d="M39.6995 28.4958C39.2465 28.7924 39.2699 28.4568 39.2621 35.7385V42.4739H36.0984H32.9348V37.3931V32.3123L32.6692 32.0469C32.4348 31.8128 32.3567 31.7816 31.9974 31.7816C31.6381 31.7816 31.5599 31.8128 31.3256 32.0469L31.06 32.3123V37.3931V42.4739H27.8964H24.7327V39.1101V35.7463L24.4749 35.4888C24.3265 35.3405 24.1078 35.2 23.9906 35.1688C23.686 35.0907 23.186 35.2858 22.9829 35.5512C22.8267 35.7697 22.8189 35.8634 22.7954 39.1257L22.772 42.4739H21.3269H19.874L19.6084 42.7393C19.2178 43.1295 19.2178 43.6915 19.6084 44.0817L19.874 44.347H31.9974H44.1208L44.3864 44.0817C44.6208 43.8475 44.652 43.7695 44.652 43.4105C44.652 43.0515 44.6208 42.9734 44.3864 42.7393L44.1208 42.4739H42.6679H41.215V35.84C41.215 30.2362 41.1993 29.1592 41.1056 28.9329C40.8869 28.41 40.1682 28.1914 39.6995 28.4958Z" fill="#1D22C2"/>
</g>
</g>
<defs>
<filter id="filter0_f_700_65" x="10.2378" y="32.9789" width="51.2388" height="49.206" filterUnits="userSpaceOnUse" color-interpolation-filters="sRGB">
<feFlood flood-opacity="0" result="BackgroundImageFix"/>
<feBlend mode="normal" in="SourceGraphic" in2="BackgroundImageFix" result="shape"/>
<feGaussianBlur stdDeviation="5" result="effect1_foregroundBlur_700_65"/>
</filter>
<radialGradient id="paint0_radial_700_65" cx="0" cy="0" r="1" gradientUnits="userSpaceOnUse" gradientTransform="translate(44.8001 14.4449) rotate(90) scale(30.1201 30.1714)">
<stop stop-color="#B0CFFF"/>
<stop offset="1" stop-color="#B0CFFF" stop-opacity="0"/>
</radialGradient>
<radialGradient id="paint1_radial_700_65" cx="0" cy="0" r="1" gradientUnits="userSpaceOnUse" gradientTransform="translate(15.6376 14.5794) rotate(90) scale(14.5794 15.6376)">
<stop stop-color="#3B3FB4"/>
<stop offset="1" stop-color="#3B3FB4" stop-opacity="0"/>
</radialGradient>
</defs>
</svg>
