<svg width="64" height="65" viewBox="0 0 64 65" fill="none" xmlns="http://www.w3.org/2000/svg">
<g id="&#208;&#184;&#208;&#186;&#208;&#190;&#208;&#189;&#208;&#186;&#208;&#176; 4 ">
<g id="Group 361">
<g id="Group 357">
<ellipse id="Ellipse 109" cx="32" cy="32.5275" rx="32" ry="31.9455" fill="#8B8FFF"/>
</g>
<g id="Group 360">
<g id="Mask group">
<mask id="mask0_700_66" style="mask-type:alpha" maskUnits="userSpaceOnUse" x="0" y="0" width="64" height="65">
<ellipse id="Ellipse 129" cx="32" cy="32.5275" rx="32" ry="31.9455" fill="#8B8FFF"/>
</mask>
<g mask="url(#mask0_700_66)">
<ellipse id="Ellipse 127" cx="44.8001" cy="14.2729" rx="30.1714" ry="30.1201" fill="url(#paint0_radial_700_66)"/>
<g id="Ellipse 128" filter="url(#filter0_f_700_66)">
<ellipse cx="15.6376" cy="14.5794" rx="15.6376" ry="14.5794" transform="matrix(0.989691 -0.143222 0.143701 0.989621 18.2856 45.2216)" fill="url(#paint1_radial_700_66)"/>
</g>
</g>
</g>
</g>
</g>
<g id="Group 359">
<path id="Vector" d="M29.5953 12.647C25.9902 13.0526 22.2757 14.6206 19.3587 16.9608C18.4203 17.7097 16.6764 19.5039 15.9726 20.44C14.3304 22.6242 13.1496 25.1048 12.5083 27.7025C12.0626 29.5123 12 30.113 12 32.4844C12 34.7778 12.0469 35.2693 12.4066 36.8919C13.8065 43.2417 18.436 48.6945 24.4497 51.0815C26.9677 52.08 29.1808 52.4935 31.9804 52.4935C35.2884 52.4935 38.1271 51.8382 40.9267 50.4341C43.0538 49.3653 44.6882 48.1718 46.3695 46.44C49.4428 43.2807 51.3431 39.3413 51.8827 35.0197C52.0391 33.7481 52.0391 31.2987 51.8827 30.0272C51.437 26.4622 49.9589 22.9284 47.7224 20.0967C47.1515 19.3713 45.1652 17.3899 44.4379 16.8204C41.5914 14.5816 38.0645 13.115 34.4829 12.6704C33.4115 12.5378 30.6588 12.5221 29.5953 12.647ZM33.9746 15.0574C34.7566 15.1354 36.1329 15.4162 36.9228 15.6503L37.3372 15.7673L36.9462 16.1183C34.1388 18.6614 29.8925 18.6692 27.0303 16.1417C26.7488 15.8921 26.6784 15.7907 26.7566 15.7439C26.8113 15.7127 27.2102 15.5957 27.6403 15.4865C29.7361 14.9638 31.7458 14.8234 33.9746 15.0574ZM24.8954 17.4445C26.3265 18.95 28.219 19.9641 30.2131 20.3152C31.1124 20.4712 32.8485 20.4712 33.7478 20.3152C35.7419 19.9641 37.6422 18.9422 39.0811 17.4367L39.7458 16.7346L40.2542 17.0076C41.0753 17.4367 42.5142 18.4118 43.3196 19.0904C44.9775 20.4712 46.5494 22.4058 47.5347 24.2702L47.8084 24.7772L47.1046 25.4403C45.5875 26.8834 44.5709 28.7634 44.219 30.7604C44.0626 31.6575 44.0626 33.3893 44.219 34.2864C44.5709 36.2834 45.5875 38.1634 47.1046 39.6065L47.8084 40.2696L47.5738 40.7065C46.2053 43.3197 43.8514 45.8394 41.2864 47.4385C40.9189 47.6648 40.4262 47.9534 40.1838 48.0782L39.7458 48.3122L39.0811 47.6102C37.6344 46.0968 35.7498 45.0827 33.7478 44.7317C32.8485 44.5757 31.1124 44.5757 30.2131 44.7317C28.2111 45.0827 26.3265 46.0968 24.8798 47.6102L24.2151 48.3122L23.7067 48.0392C22.8856 47.6102 21.4467 46.6351 20.6413 45.9564C18.9834 44.5757 17.4115 42.6411 16.4262 40.7767L16.1525 40.2696L16.8563 39.6065C18.3656 38.1712 19.39 36.2756 19.7419 34.2864C19.8983 33.3893 19.8983 31.6575 19.7419 30.7604C19.39 28.7634 18.3734 26.8834 16.8563 25.4403L16.1525 24.7772L16.4262 24.2702C17.6774 21.8987 19.8045 19.5429 22.0802 17.9905C22.6354 17.6083 24.0899 16.7658 24.1838 16.7658C24.2151 16.7658 24.5357 17.07 24.8954 17.4445ZM16.1994 28.4202C16.6061 29.0131 16.9892 29.8477 17.216 30.62C17.3724 31.1505 17.3959 31.4157 17.3959 32.5234C17.3959 33.9588 17.2864 34.5048 16.7781 35.6047C16.3245 36.5876 15.2845 37.9528 15.1593 37.7343C15.1281 37.6797 15.0108 37.2585 14.8935 36.8139C14.1427 33.8573 14.2209 30.2144 15.1046 27.4529L15.1906 27.1877L15.5425 27.5699C15.7302 27.7805 16.0274 28.1628 16.1994 28.4202ZM49.0674 28.233C49.7556 30.9398 49.7556 34.107 49.0674 36.8139C48.9501 37.2585 48.8328 37.6797 48.8016 37.7343C48.7546 37.8124 48.653 37.7421 48.4027 37.4613C47.652 36.6188 47.1202 35.6671 46.784 34.575C46.5885 33.9432 46.5728 33.7871 46.5728 32.5234C46.5728 31.2597 46.5885 31.1037 46.784 30.4718C47.1202 29.3797 47.652 28.428 48.4027 27.5855C48.653 27.3047 48.7546 27.2345 48.8016 27.3125C48.8328 27.3671 48.9501 27.7883 49.0674 28.233ZM33.2708 47.1187C34.5689 47.3371 35.8749 47.9768 36.9306 48.9051C37.2121 49.1547 37.2825 49.2561 37.2043 49.3029C37.1496 49.3341 36.7507 49.4512 36.3206 49.5604C33.4585 50.278 30.5024 50.278 27.6403 49.5604C27.2102 49.4512 26.8113 49.3341 26.7566 49.3029C26.6784 49.2561 26.7488 49.1547 27.0303 48.9051C28.782 47.3605 30.9873 46.7287 33.2708 47.1187Z" fill="#1D22C2"/>
<path id="Vector_2" d="M30.0646 22.9284C26.0997 23.724 23.0108 26.86 22.3226 30.7994C22.174 31.6419 22.174 33.3892 22.3226 34.2395C22.8544 37.2584 24.8329 39.9107 27.5543 41.2524C29.0714 41.9935 30.2757 42.2744 31.9727 42.2744C34.6237 42.2744 36.8759 41.3851 38.7684 39.5909C39.8475 38.569 40.8329 37.0244 41.2943 35.6437C41.9199 33.7481 41.9199 31.2674 41.2864 29.403C40.3246 26.5479 37.9394 24.1687 35.1085 23.2326C33.6618 22.7567 31.5426 22.6319 30.0646 22.9284ZM33.6149 25.3544C36.4458 26.0019 38.6354 28.2641 39.2141 31.1114C39.4018 32.0007 39.3392 33.6389 39.1046 34.4735C38.2679 37.3989 35.6403 39.5831 32.653 39.8405C28.9072 40.1681 25.5132 37.6485 24.7547 33.9899C24.5905 33.2176 24.5905 31.8291 24.7547 31.0568C25.5836 27.0316 29.6188 24.4339 33.6149 25.3544Z" fill="#1D22C2"/>
<path id="Vector_3" d="M31.0108 27.297C29.8925 27.5778 28.9463 28.5451 28.696 29.6684C28.5396 30.3783 28.9775 30.9633 29.6657 30.9633C30.1349 30.9633 30.4477 30.7371 30.6198 30.2847C30.698 30.0819 30.8231 29.8166 30.9013 29.7074C31.0655 29.4578 31.4878 29.2472 31.8006 29.2472C32.3167 29.255 32.9189 29.84 32.9189 30.3393C32.9189 30.8385 31.957 32.3441 29.8925 35.0666C29.5093 35.5736 29.1261 36.1197 29.0479 36.2601C28.8133 36.7281 28.9932 37.3444 29.4546 37.6486C29.6422 37.7734 29.9238 37.789 31.9335 37.8125C33.1848 37.8281 34.3187 37.8203 34.4594 37.789C35.3275 37.6252 35.6012 36.4629 34.8817 35.9793C34.6315 35.8076 34.5455 35.7998 33.3021 35.7998C32.5748 35.7998 31.9805 35.7764 31.9805 35.753C31.9805 35.7218 32.2072 35.402 32.4731 35.0276C33.4976 33.6468 34.0841 32.7809 34.3969 32.2115C35.046 30.9945 35.1163 29.996 34.6002 28.9585C34.0919 27.9288 33.1222 27.3048 31.957 27.2502C31.6051 27.2346 31.1828 27.258 31.0108 27.297Z" fill="#1D22C2"/>
</g>
</g>
<defs>
<filter id="filter0_f_700_66" x="10.2378" y="32.807" width="51.2388" height="49.206" filterUnits="userSpaceOnUse" color-interpolation-filters="sRGB">
<feFlood flood-opacity="0" result="BackgroundImageFix"/>
<feBlend mode="normal" in="SourceGraphic" in2="BackgroundImageFix" result="shape"/>
<feGaussianBlur stdDeviation="5" result="effect1_foregroundBlur_700_66"/>
</filter>
<radialGradient id="paint0_radial_700_66" cx="0" cy="0" r="1" gradientUnits="userSpaceOnUse" gradientTransform="translate(44.8001 14.2729) rotate(90) scale(30.1201 30.1714)">
<stop stop-color="#B0CFFF"/>
<stop offset="1" stop-color="#B0CFFF" stop-opacity="0"/>
</radialGradient>
<radialGradient id="paint1_radial_700_66" cx="0" cy="0" r="1" gradientUnits="userSpaceOnUse" gradientTransform="translate(15.6376 14.5794) rotate(90) scale(14.5794 15.6376)">
<stop stop-color="#3B3FB4"/>
<stop offset="1" stop-color="#3B3FB4" stop-opacity="0"/>
</radialGradient>
</defs>
</svg>
