<svg width="15" height="14" viewBox="0 0 15 14" fill="none" xmlns="http://www.w3.org/2000/svg">
<path id="Arrow 7" d="M13.5752 8.00021C14.0486 8.00021 14.4323 7.61645 14.4323 7.14307C14.4323 6.66968 14.0486 6.28592 13.5752 6.28592V8.00021ZM0.569093 6.53697C0.234358 6.87171 0.234358 7.41442 0.569093 7.74916L6.02392 13.204C6.35866 13.5387 6.90137 13.5387 7.23611 13.204C7.57084 12.8693 7.57084 12.3265 7.23611 11.9918L2.38737 7.14307L7.23611 2.29433C7.57084 1.95959 7.57084 1.41688 7.23611 1.08215C6.90137 0.747411 6.35866 0.747411 6.02392 1.08215L0.569093 6.53697ZM13.5752 6.28592L1.17519 6.28592V8.00021L13.5752 8.00021V6.28592Z" fill="white"/>
</svg>
