<svg width="12" height="23" viewBox="0 0 12 23" fill="none" xmlns="http://www.w3.org/2000/svg">
<path d="M6.08963 4.592V0.439999H7.69763V4.592H6.08963ZM2.89763 4.592V0.439999H4.50563V4.592H2.89763ZM6.08963 22.352V18.2H7.69763V22.352H6.08963ZM2.89763 22.352V18.2H4.50563V22.352H2.89763ZM0.425625 20V2.864H4.55363C5.92963 2.864 7.07363 3.008 7.98563 3.296C8.91363 3.568 9.60963 4.024 10.0736 4.664C10.5536 5.288 10.7936 6.136 10.7936 7.208C10.7936 7.848 10.7136 8.432 10.5536 8.96C10.3936 9.488 10.1616 9.92 9.85763 10.256C9.55363 10.592 9.18563 10.808 8.75363 10.904V11.024C9.21763 11.136 9.63363 11.336 10.0016 11.624C10.3696 11.912 10.6656 12.328 10.8896 12.872C11.1136 13.416 11.2256 14.136 11.2256 15.032C11.2256 16.072 11.0016 16.968 10.5536 17.72C10.1056 18.456 9.45763 19.024 8.60963 19.424C7.77763 19.808 6.78563 20 5.63363 20H0.425625ZM4.96163 9.656C5.76163 9.656 6.31363 9.488 6.61763 9.152C6.92163 8.816 7.07363 8.328 7.07363 7.688C7.07363 7.032 6.88963 6.56 6.52163 6.272C6.15363 5.984 5.56963 5.84 4.76963 5.84H4.04963V9.656H4.96163ZM4.04963 12.536V17H5.22563C6.05763 17 6.63363 16.792 6.95363 16.376C7.28963 15.944 7.45763 15.376 7.45763 14.672C7.45763 14.24 7.38563 13.864 7.24163 13.544C7.09763 13.224 6.84963 12.976 6.49763 12.8C6.16163 12.624 5.69763 12.536 5.10563 12.536H4.04963Z" fill="white"/>
</svg>
