<svg width="29" height="21" viewBox="0 0 29 21" fill="none" xmlns="http://www.w3.org/2000/svg">
<g id="Group 236">
<path id="Arrow 3" d="M8.82208 1.08936C8.82208 0.535018 8.3727 0.085638 7.81836 0.085638C7.26402 0.085638 6.81464 0.535018 6.81464 1.08936H8.82208ZM7.10862 20.5352C7.5006 20.9271 8.13612 20.9271 8.52809 20.5352L14.9157 14.1475C15.3077 13.7556 15.3077 13.12 14.9157 12.7281C14.5237 12.3361 13.8882 12.3361 13.4962 12.7281L7.81836 18.4059L2.14048 12.7281C1.7485 12.3361 1.11298 12.3361 0.721005 12.7281C0.32903 13.12 0.32903 13.7556 0.721005 14.1475L7.10862 20.5352ZM6.81464 1.08936L6.81464 19.8254H8.82208L8.82208 1.08936H6.81464Z" fill="white"/>
<path id="Arrow 4" d="M22.2049 19.8254C22.2049 20.3798 21.7555 20.8292 21.2012 20.8292C20.6468 20.8292 20.1975 20.3798 20.1975 19.8254H22.2049ZM20.4914 0.379644C20.8834 -0.012331 21.5189 -0.012331 21.9109 0.379644L28.2985 6.76726C28.6905 7.15924 28.6905 7.79476 28.2985 8.18673C27.9065 8.57871 27.271 8.57871 26.8791 8.18673L21.2012 2.50885L15.5233 8.18673C15.1313 8.57871 14.4958 8.57871 14.1038 8.18673C13.7118 7.79476 13.7118 7.15924 14.1038 6.76726L20.4914 0.379644ZM20.1975 19.8254V1.08938H22.2049V19.8254H20.1975Z" fill="white"/>
</g>
</svg>
