<svg width="9" height="13" viewBox="0 0 9 13" fill="none" xmlns="http://www.w3.org/2000/svg">
<g id="Group 234">
<path id="Arrow 1" d="M4.99916 0.856934C4.99916 0.541342 4.74333 0.285505 4.42773 0.285505C4.11214 0.285505 3.85631 0.541342 3.85631 0.856934H4.99916ZM4.02367 9.26099C4.24683 9.48415 4.60864 9.48415 4.8318 9.26099L8.46834 5.62445C8.6915 5.40129 8.6915 5.03948 8.46834 4.81632C8.24519 4.59317 7.88338 4.59317 7.66022 4.81632L4.42773 8.04881L1.19525 4.81632C0.97209 4.59317 0.610281 4.59317 0.387125 4.81632C0.163968 5.03948 0.163968 5.40129 0.387125 5.62445L4.02367 9.26099ZM3.85631 0.856934L3.85631 8.85693H4.99916V0.856934H3.85631Z" fill="#8B8FFF"/>
<path id="Line 26" d="M1 12.2854H7.85714" stroke="#8B8FFF" stroke-width="1.14286" stroke-linecap="round"/>
</g>
</svg>
