<svg width="64" height="64" viewBox="0 0 64 64" fill="none" xmlns="http://www.w3.org/2000/svg">
<circle cx="32" cy="32" r="32" fill="url(#paint0_linear_641_40)"/>
<path d="M23.0932 12.916C20.8881 13.3858 18.5949 14.0434 17.9775 14.3253C15.9489 15.1709 15.7284 16.2983 15.9048 24.8949L16.0371 32.8338L17.8011 36.5919C19.1682 39.5514 20.403 41.2895 23.7547 44.8597C26.0479 47.3494 28.7821 49.98 29.7964 50.6847L31.6927 52L33.4567 50.7316C36.4996 48.6177 41.7475 42.9806 43.7762 39.6923C47.0837 34.3371 47.5688 32.2701 47.5688 23.7675C47.5247 18.6941 47.3924 16.1574 46.9955 15.6406C46.1135 14.4193 44.8346 13.9025 40.204 12.916C34.6033 11.6947 28.4734 11.6947 23.0932 12.916ZM39.5425 16.2043C42.0562 16.7681 44.0408 17.4727 44.3936 17.9425C45.0551 18.835 45.0992 25.0358 44.4818 29.0757C43.8203 33.5854 41.3947 38.1891 37.5139 42.4169C35.6617 44.4369 33.589 46.4568 32.9275 46.9266C31.7368 47.7252 31.6486 47.7252 30.502 46.9266C29.7964 46.4568 27.7678 44.4839 25.9597 42.5109C21.9907 38.2361 19.6092 33.7264 18.9477 29.3106C18.2862 25.0828 18.3303 18.882 19.0359 17.8955C19.7856 16.7681 26.6653 15.3118 31.384 15.2648C33.7654 15.2178 36.8524 15.5937 39.5425 16.2043Z" fill="white"/>
<path d="M35.5735 26.8212L29.9286 32.8341L26.9298 29.6398L23.931 26.4454L22.8726 27.6668L21.8142 28.8882L25.8714 33.21L29.9286 37.5317L36.7642 30.2505L43.5556 23.0162L42.6295 21.9357C42.1003 21.325 41.5711 20.8553 41.4388 20.8553C41.3065 20.8553 38.6605 23.5329 35.5735 26.8212Z" fill="white"/>
<defs>
<linearGradient id="paint0_linear_641_40" x1="31.0857" y1="17.3714" x2="64" y2="64" gradientUnits="userSpaceOnUse">
<stop stop-color="#FCA034"/>
<stop offset="1" stop-color="#F46C20"/>
</linearGradient>
</defs>
</svg>
