<svg width="402" height="87" viewBox="0 0 402 87" fill="none" xmlns="http://www.w3.org/2000/svg">
<g filter="url(#filter0_d_1219_155)">
<path d="M40.336 64.072H15.928C18.448 63.712 20.608 62.56 22.12 60.328V22.96C14.272 22.96 4.768 23.32 3.4 25.84L7.72 11.584H48.544L52.864 25.84C51.496 23.32 42.064 22.96 34.144 22.96V60.328C35.656 62.56 37.816 63.712 40.336 64.072ZM73.0758 64.072C57.0198 64.072 49.2437 51.472 49.2437 38.584C49.2437 25.12 57.7398 11.368 74.0838 11.368C77.6838 11.368 81.1398 11.872 83.0838 14.68H82.8678C81.1398 14.68 68.1078 15.04 63.8598 26.128C62.4198 29.944 61.7718 33.4 61.7718 36.424C61.7718 45.712 67.6758 51.04 73.7238 51.04C78.4758 51.04 83.2278 47.728 85.1718 40.528C85.6038 38.944 85.7478 37.504 85.7478 36.064C85.7478 27.064 78.6918 20.728 78.6918 20.728C80.0598 20.368 81.4278 20.224 82.6518 20.224C92.2278 20.224 97.8438 29.656 97.8438 39.808C97.8438 51.472 90.3558 64.072 73.0758 64.072ZM143.924 67.312C129.74 65.296 118.22 47.656 109.292 29.944V64.072H94.2437C96.7637 63.712 98.8518 62.632 100.364 60.472V14.968C98.8518 12.808 96.7637 11.728 94.2437 11.368H100.796C113.54 11.368 124.916 38.512 131.036 46.72V15.112C129.524 12.88 127.364 11.728 124.844 11.368H146.228C143.708 11.728 141.548 12.88 140.036 15.112V61.984C140.036 64.504 143.924 67.312 143.924 67.312ZM177.323 64.072H148.739V15.184C147.227 12.952 145.139 11.872 142.619 11.44H176.819C183.587 11.44 188.339 16.48 188.339 22.672C188.339 29.296 183.731 33.976 177.323 33.976C185.387 33.976 192.011 40.744 192.011 49.024C192.011 57.304 185.387 64.072 177.323 64.072ZM171.491 52.192C176.675 52.192 179.339 48.664 179.339 45.064C179.339 41.32 176.459 37.432 170.627 37.432C168.827 37.432 166.811 37.792 164.435 38.656C164.795 36.28 165.947 34.912 167.387 33.976C169.475 32.536 172.139 31.888 174.083 30.088C175.811 28.504 177.035 26.2 177.035 23.968C177.035 21.304 175.163 18.64 169.907 17.56H158.603L158.459 52.192H171.491ZM212.8 64.072H188.392C190.912 63.712 193.072 62.56 194.584 60.328V15.112C193.072 12.88 190.912 11.728 188.392 11.368H212.8C210.28 11.728 208.12 12.88 206.608 15.112V60.328C208.12 62.56 210.28 63.712 212.8 64.072ZM258.885 67.312C244.701 65.296 233.181 47.656 224.253 29.944V64.072H209.205C211.725 63.712 213.813 62.632 215.325 60.472V14.968C213.813 12.808 211.725 11.728 209.205 11.368H215.757C228.501 11.368 239.877 38.512 245.997 46.72V15.112C244.485 12.88 242.325 11.728 239.805 11.368H261.189C258.669 11.728 256.509 12.88 254.997 15.112V61.984C254.997 64.504 258.885 67.312 258.885 67.312ZM295.092 64.144C285.012 64.144 274.212 63.496 266.724 58.312C262.188 55.144 257.58 47.44 257.58 38.152C257.652 16.336 272.844 11.296 284.94 11.296C291.78 11.296 297.756 12.952 299.268 14.032L301.212 22.528C297.108 20.584 292.932 19.72 289.116 19.72C288.108 19.72 287.1 19.792 286.092 19.936C274.572 21.376 268.812 29.368 268.812 37.144C268.812 45.064 274.788 52.624 286.596 52.624C287.532 52.624 288.468 52.552 289.476 52.48L289.404 40.96C289.26 40.672 289.764 37.288 285.804 37.288H301.5C301.5 44.128 301.284 50.896 301.284 57.736C301.716 60.184 302.868 62.56 305.1 64.072L295.092 64.144ZM325.357 64.072C309.301 64.072 301.525 51.472 301.525 38.584C301.525 25.12 310.021 11.368 326.365 11.368C329.965 11.368 333.421 11.872 335.365 14.68H335.149C333.421 14.68 320.389 15.04 316.141 26.128C314.701 29.944 314.053 33.4 314.053 36.424C314.053 45.712 319.957 51.04 326.005 51.04C330.757 51.04 335.509 47.728 337.453 40.528C337.885 38.944 338.029 37.504 338.029 36.064C338.029 27.064 330.973 20.728 330.973 20.728C332.341 20.368 333.709 20.224 334.933 20.224C344.509 20.224 350.125 29.656 350.125 39.808C350.125 51.472 342.637 64.072 325.357 64.072Z" fill="url(#paint0_linear_1219_155)"/>
</g>
<path d="M10.1431 85.2697C8.87922 85.2697 7.89804 84.987 6.73392 84.5712L6.16848 82.2929C6.20175 82.3428 7.26608 82.7585 8.29716 83.0745C8.82933 83.2408 9.47792 83.4404 10.0932 83.4404C10.4591 83.4404 10.825 83.3739 11.1409 83.1743C11.4569 82.9747 11.6731 82.6588 11.6731 82.243V82.1931C11.6731 81.0124 10.1099 80.5135 9.21183 80.0644C7.23282 79.0999 6.35142 78.2018 6.35142 76.5222V76.3392C6.40131 74.3436 8.29716 73.2127 10.5589 73.1296H10.7418C11.7729 73.1296 12.6543 73.3791 13.6521 73.6285L14.1677 75.6241C14.018 75.3581 12.621 74.8591 11.4237 74.8591C10.642 74.8591 9.92693 75.0587 9.69411 75.6574C9.64422 75.7904 9.61096 75.9235 9.61096 76.0399C9.61096 76.7217 10.4591 77.0876 11.4902 77.5865C13.1698 78.3681 14.8994 79.366 14.9327 81.3782V81.4946C14.9327 83.8229 12.8372 85.2531 10.1431 85.2697ZM30.7408 85.885C30.7408 85.885 28.4791 85.619 27.1819 84.3052C25.3692 82.4758 23.8725 79.499 22.7416 77.2373V85.303H19.2493C19.8313 85.2198 20.3136 84.9704 20.6628 84.4715V73.9944C20.3136 73.4955 19.8313 73.246 19.2493 73.1462H21.3114C21.5609 73.1462 22.5587 73.2793 24.2383 75.3414C25.3027 76.6552 26.367 78.4513 27.2152 80.0478C28.0467 78.4513 29.111 76.6552 30.1754 75.3414C31.855 73.2793 32.8695 73.1462 33.1189 73.1462H35.1645C34.599 73.246 34.1001 73.4955 33.7509 73.9944V84.4715C34.1001 84.9704 34.599 85.2198 35.1645 85.3196H31.6887V77.2373C31.273 77.9856 28.8449 80.9957 28.8117 82.5756V82.6255C28.8117 84.222 30.2253 85.619 30.7408 85.885ZM53.4117 85.3196L47.325 85.303C47.9403 84.9704 48.1232 84.4548 48.1232 83.8728C48.1232 83.3406 47.9569 82.7752 47.8405 82.2596H43.2339C43.1175 82.6255 42.8182 83.9726 42.8182 84.7542C42.8182 85.0702 42.8681 85.303 43.0177 85.303H39.4921C40.4068 85.2032 44.2983 76.2894 44.2983 73.6784C44.2983 73.4622 44.2816 73.2793 44.2151 73.1629C44.2816 73.1462 44.5643 73.0298 44.9967 73.0298C45.7118 73.0298 46.8094 73.3624 47.8738 75.0753C49.2208 77.2539 51.4992 84.3717 53.4117 85.3196ZM47.4081 80.6465C46.8926 79.0666 46.2773 77.4701 45.6952 75.9235C45.2296 77.0377 44.4646 78.9502 43.8326 80.6465H47.4081ZM68.8963 85.4859C66.1856 85.4859 63.8906 82.2596 62.8761 80.6465H61.9448V84.4715C62.2774 84.9704 62.7597 85.2032 63.3085 85.2863H59.1509V74.011C58.8017 73.4788 58.3194 73.2294 57.7374 73.1296H64.9217C66.9339 73.1296 68.5803 74.8259 68.5803 76.888C68.5803 78.6342 67.3663 80.2307 65.7864 80.6964C66.4018 82.243 68.73 84.5047 70.1103 85.3695L69.3121 85.4527L68.8963 85.4859ZM63.0923 79.4824C64.5059 79.4824 65.67 78.4846 65.67 77.0377C65.67 75.5743 64.5225 74.3935 63.0923 74.3935H61.9448V79.4824H63.0923ZM82.9711 85.3196H77.3334C77.9155 85.2365 78.4144 84.9704 78.7636 84.4548V75.8237C76.9509 75.8237 74.7557 75.9069 74.4398 76.4889L75.4376 73.1961H84.867L85.8648 76.4889C85.5488 75.9069 83.3702 75.8237 81.5409 75.8237V84.4548C81.8901 84.9704 82.3891 85.2365 82.9711 85.3196ZM109.871 85.3529C108.474 85.3529 106.944 85.0702 105.763 84.1555C104.433 83.1244 103.784 81.1953 103.784 79.2662C103.784 77.2872 104.466 75.3082 105.863 74.2937C107.027 73.4289 108.524 73.1629 109.871 73.1629C111.468 73.1629 112.848 73.5454 113.214 73.8114L113.763 75.8071C112.781 75.3414 111.817 75.1419 110.935 75.1419C110.703 75.1419 110.47 75.1585 110.237 75.1918C107.709 75.5077 106.429 77.387 106.429 79.2662C106.429 81.1288 107.709 83.008 110.237 83.3406C110.453 83.3739 110.686 83.3739 110.919 83.3739C111.8 83.3739 112.765 83.1743 113.763 82.7253L113.214 84.7209C112.848 84.9704 111.468 85.3529 109.871 85.3529ZM123.588 85.3196C119.879 85.3196 118.083 82.4093 118.083 79.4325C118.083 76.3226 120.046 73.1462 123.821 73.1462C124.652 73.1462 125.45 73.2626 125.9 73.9112H125.85C125.45 73.9112 122.44 73.9944 121.459 76.5554C121.127 77.4368 120.977 78.2351 120.977 78.9336C120.977 81.0789 122.341 82.3095 123.738 82.3095C124.835 82.3095 125.933 81.5445 126.382 79.8815C126.482 79.5156 126.515 79.183 126.515 78.8504C126.515 76.7716 124.885 75.3082 124.885 75.3082C125.201 75.225 125.517 75.1918 125.8 75.1918C128.012 75.1918 129.309 77.3703 129.309 79.7152C129.309 82.4093 127.579 85.3196 123.588 85.3196ZM145.108 86.068C141.831 85.6023 139.17 81.5279 137.108 77.4368V85.3196H133.633C134.215 85.2365 134.697 84.987 135.046 84.4881V73.9777C134.697 73.4788 134.215 73.2294 133.633 73.1462H135.146C138.09 73.1462 140.717 79.4159 142.131 81.3117V74.011C141.781 73.4955 141.283 73.2294 140.7 73.1462H145.64C145.058 73.2294 144.559 73.4955 144.209 74.011V84.8373C144.209 85.4194 145.108 86.068 145.108 86.068ZM158.493 85.3196H152.855C153.437 85.2365 153.936 84.9704 154.285 84.4548V75.8237C152.473 75.8237 150.277 75.9069 149.961 76.4889L150.959 73.1961H160.389L161.387 76.4889C161.071 75.9069 158.892 75.8237 157.063 75.8237V84.4548C157.412 84.9704 157.911 85.2365 158.493 85.3196ZM176.865 85.4859C174.154 85.4859 171.859 82.2596 170.844 80.6465H169.913V84.4715C170.246 84.9704 170.728 85.2032 171.277 85.2863H167.119V74.011C166.77 73.4788 166.288 73.2294 165.706 73.1296H172.89C174.902 73.1296 176.549 74.8259 176.549 76.888C176.549 78.6342 175.335 80.2307 173.755 80.6964C174.37 82.243 176.698 84.5047 178.079 85.3695L177.28 85.4527L176.865 85.4859ZM171.061 79.4824C172.474 79.4824 173.638 78.4846 173.638 77.0377C173.638 75.5743 172.491 74.3935 171.061 74.3935H169.913V79.4824H171.061Z" fill="#F28F1F"/>
<path d="M196.785 85.3196L190.699 85.303C191.314 84.9704 191.497 84.4548 191.497 83.8728C191.497 83.3406 191.331 82.7752 191.214 82.2596H186.608C186.491 82.6255 186.192 83.9726 186.192 84.7542C186.192 85.0702 186.242 85.303 186.391 85.303H182.866C183.78 85.2032 187.672 76.2894 187.672 73.6784C187.672 73.4622 187.655 73.2793 187.589 73.1629C187.655 73.1462 187.938 73.0298 188.37 73.0298C189.085 73.0298 190.183 73.3624 191.247 75.0753C192.594 77.2539 194.873 84.3717 196.785 85.3196ZM190.782 80.6465C190.266 79.0666 189.651 77.4701 189.069 75.9235C188.603 77.0377 187.838 78.9502 187.206 80.6465H190.782ZM207.198 85.3529C205.801 85.3529 204.271 85.0702 203.09 84.1555C201.76 83.1244 201.111 81.1953 201.111 79.2662C201.111 77.2872 201.793 75.3082 203.19 74.2937C204.354 73.4289 205.851 73.1629 207.198 73.1629C208.794 73.1629 210.175 73.5454 210.54 73.8114L211.089 75.8071C210.108 75.3414 209.143 75.1419 208.262 75.1419C208.029 75.1419 207.796 75.1585 207.564 75.1918C205.036 75.5077 203.755 77.387 203.755 79.2662C203.755 81.1288 205.036 83.008 207.564 83.3406C207.78 83.3739 208.013 83.3739 208.245 83.3739C209.127 83.3739 210.091 83.1743 211.089 82.7253L210.54 84.7209C210.175 84.9704 208.794 85.3529 207.198 85.3529ZM223.941 85.3196H218.303C218.886 85.2365 219.384 84.9704 219.734 84.4548V75.8237C217.921 75.8237 215.726 75.9069 215.41 76.4889L216.408 73.1961H225.837L226.835 76.4889C226.519 75.9069 224.34 75.8237 222.511 75.8237V84.4548C222.86 84.9704 223.359 85.2365 223.941 85.3196ZM254.6 85.3196H244.755C245.337 85.2198 245.835 84.9704 246.185 84.4382V74.011C245.835 73.4955 245.337 73.2294 244.755 73.1462H250.392C249.81 73.2294 249.311 73.4955 248.962 74.011V82.6421C249.394 82.6421 250.409 82.692 251.523 82.692C253.286 82.692 255.298 82.5756 255.614 82.0268L254.6 85.3196ZM265.435 85.3196C261.726 85.3196 259.93 82.4093 259.93 79.4325C259.93 76.3226 261.893 73.1462 265.668 73.1462C266.499 73.1462 267.298 73.2626 267.747 73.9112H267.697C267.298 73.9112 264.287 73.9944 263.306 76.5554C262.974 77.4368 262.824 78.2351 262.824 78.9336C262.824 81.0789 264.188 82.3095 265.585 82.3095C266.682 82.3095 267.78 81.5445 268.229 79.8815C268.329 79.5156 268.362 79.183 268.362 78.8504C268.362 76.7716 266.732 75.3082 266.732 75.3082C267.048 75.225 267.364 75.1918 267.647 75.1918C269.859 75.1918 271.156 77.3703 271.156 79.7152C271.156 82.4093 269.426 85.3196 265.435 85.3196ZM284.011 85.3196H278.373C278.955 85.2365 279.454 84.9704 279.804 84.4548V75.8237C277.991 75.8237 275.796 75.9069 275.48 76.4889L276.477 73.1961H285.907L286.905 76.4889C286.589 75.9069 284.41 75.8237 282.581 75.8237V84.4548C282.93 84.9704 283.429 85.2365 284.011 85.3196ZM299.755 85.3196H294.118C294.7 85.2365 295.199 84.9704 295.548 84.4548V75.8237C293.735 75.8237 291.54 75.9069 291.224 76.4889L292.222 73.1961H301.651L302.649 76.4889C302.333 75.9069 300.154 75.8237 298.325 75.8237V84.4548C298.674 84.9704 299.173 85.2365 299.755 85.3196ZM316.813 85.3196H306.968C307.55 85.2365 308.032 84.987 308.382 84.4881V73.9944C308.032 73.4788 307.55 73.2294 306.968 73.1462H316.813L317.345 75.1419C317.063 74.6263 315.632 74.5099 314.186 74.5099C312.938 74.5099 311.691 74.5931 311.176 74.5931V77.2207H314.352C314.884 77.0876 315.25 76.8049 315.333 76.3392V79.8815C315.267 79.4159 314.851 79.1498 314.285 79.0001H311.176V82.6588C311.591 82.6588 312.556 82.692 313.637 82.692C315.416 82.692 317.495 82.5922 317.811 82.0434L316.813 85.3196ZM333.287 85.4859C330.576 85.4859 328.281 82.2596 327.266 80.6465H326.335V84.4715C326.668 84.9704 327.15 85.2032 327.699 85.2863H323.541V74.011C323.192 73.4788 322.71 73.2294 322.128 73.1296H329.312C331.324 73.1296 332.971 74.8259 332.971 76.888C332.971 78.6342 331.757 80.2307 330.177 80.6964C330.792 82.243 333.12 84.5047 334.501 85.3695L333.702 85.4527L333.287 85.4859ZM327.483 79.4824C328.896 79.4824 330.06 78.4846 330.06 77.0377C330.06 75.5743 328.913 74.3935 327.483 74.3935H326.335V79.4824H327.483ZM344.767 84.4382C345.116 84.9704 345.599 85.2198 346.181 85.303C344.302 85.303 342.422 85.303 340.543 85.303C341.142 85.2198 341.624 84.9704 341.973 84.4382C341.973 83.0246 341.973 81.5944 341.973 80.1642C340.842 78.4014 338.281 73.3292 336.07 73.0132C337.616 73.0132 339.163 73.0132 340.726 73.0132L343.553 78.418L345.798 73.6451C345.466 73.2793 345.033 73.0797 344.551 73.0132H348.492L344.767 80.1642V84.4382Z" fill="#F28F1F"/>
<defs>
<filter id="filter0_d_1219_155" x="0.74497" y="8.64048" width="350.385" height="59.6766" filterUnits="userSpaceOnUse" color-interpolation-filters="sRGB">
<feFlood flood-opacity="0" result="BackgroundImageFix"/>
<feColorMatrix in="SourceAlpha" type="matrix" values="0 0 0 0 0 0 0 0 0 0 0 0 0 0 0 0 0 0 127 0" result="hardAlpha"/>
<feOffset dx="-0.825175" dy="-0.825175"/>
<feGaussianBlur stdDeviation="0.915123"/>
<feComposite in2="hardAlpha" operator="out"/>
<feColorMatrix type="matrix" values="0 0 0 0 0.6375 0 0 0 0 0.893382 0 0 0 0 1 0 0 0 1 0"/>
<feBlend mode="normal" in2="BackgroundImageFix" result="effect1_dropShadow_1219_155"/>
<feBlend mode="normal" in="SourceGraphic" in2="effect1_dropShadow_1219_155" result="shape"/>
</filter>
<linearGradient id="paint0_linear_1219_155" x1="19.1539" y1="14.3141" x2="390.733" y2="73.6827" gradientUnits="userSpaceOnUse">
<stop stop-color="#E23E0A"/>
<stop offset="0.379616" stop-color="#D9601C"/>
<stop offset="0.648958" stop-color="#F49320"/>
<stop offset="0.925" stop-color="#FF5C00"/>
</linearGradient>
</defs>
</svg>
