<svg width="32" height="32" viewBox="0 0 32 32" fill="none" xmlns="http://www.w3.org/2000/svg">
<circle cx="16" cy="16" r="16" fill="#8B8FFF"/>
<mask id="mask0_706_53" style="mask-type:alpha" maskUnits="userSpaceOnUse" x="0" y="0" width="32" height="32">
<circle cx="16" cy="16" r="16" fill="#8B8FFF"/>
</mask>
<g mask="url(#mask0_706_53)">
<circle cx="22.3999" cy="6.85714" r="15.0857" fill="url(#paint0_radial_706_53)"/>
<g filter="url(#filter0_f_706_53)">
<ellipse cx="17.9286" cy="28.4624" rx="7.81908" ry="7.30189" transform="rotate(-8.24819 17.9286 28.4624)" fill="url(#paint1_radial_706_53)"/>
</g>
</g>
<path d="M14.4365 7.0262C13.6339 7.22078 13.1458 7.69878 12.47 8.95089C11.9303 9.95342 11.4187 10.6514 10.8321 11.1886C10.0248 11.9331 9.2129 12.3011 8.33526 12.3307L8.01612 12.3392L7.9598 12.1235C7.88471 11.8273 7.74391 11.637 7.50455 11.5143C7.30744 11.4128 7.27458 11.4086 6.14351 11.3959C4.78247 11.379 4.54311 11.4086 4.2709 11.6285C4.16765 11.7131 4.06909 11.8443 4.04093 11.9331C4.00339 12.0388 3.994 13.9466 4.00339 17.9906L4.01747 23.8958L4.15357 24.0523C4.41639 24.3611 4.51495 24.378 6.04964 24.3653L7.406 24.3526L7.57965 24.23C7.80962 24.0734 7.92695 23.8915 7.96449 23.6504L7.99265 23.4558L8.35403 23.5108C8.84213 23.587 8.98293 23.6293 9.39124 23.8239C10.1046 24.1707 10.879 24.5007 11.2216 24.6022C12.2494 24.9068 13.465 25.0252 15.3751 24.9956C16.9192 24.9744 17.1398 24.9448 17.7171 24.6868C18.4445 24.3653 18.8153 23.8619 19.0875 22.8129C19.2236 22.2968 19.2283 22.2883 19.5756 21.9034C19.9135 21.5227 20.1388 21.1801 20.3171 20.7782C20.5002 20.3637 20.5518 20.1395 20.6034 19.5515C20.6316 19.285 20.7067 18.8154 20.7724 18.5151C20.8803 18.0498 20.8944 17.8891 20.8756 17.4787C20.8522 16.9796 20.702 16.4254 20.5424 16.2309C20.5002 16.1843 20.4673 16.1336 20.4673 16.1166C20.4673 16.0997 21.8143 16.0828 23.4616 16.0743L26.4512 16.0617L26.761 15.9263C27.1693 15.7444 27.6433 15.3045 27.8498 14.9111C27.9953 14.6361 28 14.6023 28 14.1158C28 13.6336 27.9906 13.5955 27.8498 13.3206C27.6527 12.9441 27.418 12.6945 27.0754 12.4872C26.5122 12.1488 26.944 12.1742 21.054 12.1488C18.1629 12.1361 15.7506 12.1108 15.699 12.0896C15.6004 12.0558 15.6051 12.0388 15.8914 11.5016C16.2434 10.846 16.525 10.1184 16.6423 9.59386C16.755 9.07779 16.7221 8.33752 16.5766 7.99489C16.4311 7.65648 16.0791 7.32231 15.6943 7.14887C15.4315 7.03466 15.3282 7.01351 14.9809 7.00082C14.7603 6.99659 14.5163 7.00928 14.4365 7.0262ZM15.3047 7.91875C15.6661 8.08372 15.8539 8.49404 15.7975 8.99742C15.7178 9.7546 15.3798 10.5964 14.6712 11.8062C14.474 12.1404 14.3332 12.428 14.3567 12.4407C14.9105 12.7707 15.2015 12.8764 15.7881 12.9483C16.0322 12.9779 17.8297 12.9948 21.1385 12.9948H26.1227L26.3574 13.0964C26.8314 13.2952 27.0989 13.659 27.0942 14.1116C27.0942 14.2554 27.066 14.4373 27.0238 14.5219C26.9299 14.7334 26.639 15.0126 26.409 15.1226L26.2166 15.2156L22.4573 15.2283L18.6933 15.2368L18.5712 15.351C18.4774 15.4356 18.4492 15.5033 18.4492 15.6386C18.4492 15.9263 18.6839 16.0828 19.1063 16.0828C19.2001 16.0828 19.2893 16.1378 19.4254 16.2689C19.6507 16.4889 19.7727 16.6919 19.8807 17.0303C19.9886 17.3688 19.9558 18.1048 19.815 18.494C19.7446 18.6928 19.7164 18.8789 19.7164 19.1623C19.7164 20.0295 19.3926 20.8036 18.7637 21.455C18.4633 21.7638 18.3741 21.9499 18.1676 22.6394C18.0644 22.999 17.9236 23.3755 17.8626 23.4685C17.703 23.7139 17.4261 23.8958 17.0272 24.0311L16.6893 24.1411H15.0231C12.4466 24.1411 11.8599 24.0311 10.175 23.2359C9.34431 22.8425 9.01578 22.7367 8.43382 22.669L8.00673 22.6141L7.99265 17.8891L7.98327 13.1641H8.33057C9.45695 13.1641 10.588 12.6564 11.5877 11.7047C12.2682 11.0575 12.7469 10.3933 13.3758 9.21738C13.7888 8.45597 14.0939 8.09218 14.474 7.92298C14.7275 7.80877 15.0607 7.80877 15.3047 7.91875Z" fill="#1D22C2"/>
<defs>
<filter id="filter0_f_706_53" x="0.118896" y="11.1484" width="35.6194" height="34.6279" filterUnits="userSpaceOnUse" color-interpolation-filters="sRGB">
<feFlood flood-opacity="0" result="BackgroundImageFix"/>
<feBlend mode="normal" in="SourceGraphic" in2="BackgroundImageFix" result="shape"/>
<feGaussianBlur stdDeviation="5" result="effect1_foregroundBlur_706_53"/>
</filter>
<radialGradient id="paint0_radial_706_53" cx="0" cy="0" r="1" gradientUnits="userSpaceOnUse" gradientTransform="translate(22.3999 6.85714) rotate(90) scale(15.0857)">
<stop stop-color="#B0CFFF"/>
<stop offset="1" stop-color="#B0CFFF" stop-opacity="0"/>
</radialGradient>
<radialGradient id="paint1_radial_706_53" cx="0" cy="0" r="1" gradientUnits="userSpaceOnUse" gradientTransform="translate(17.9286 28.4624) rotate(90) scale(7.30189 7.81908)">
<stop stop-color="#3B3FB4"/>
<stop offset="1" stop-color="#3B3FB4" stop-opacity="0"/>
</radialGradient>
</defs>
</svg>
