<svg width="64" height="64" viewBox="0 0 64 64" fill="none" xmlns="http://www.w3.org/2000/svg">
<g id="Group 347">
<g id="&#208;&#184;&#208;&#186;&#208;&#190;&#208;&#189;&#208;&#186;&#208;&#176; 3 ">
<g id="Group 348">
<circle id="Ellipse 113" cx="32" cy="32" r="32" fill="url(#paint0_linear_643_55)"/>
</g>
<g id="Group 349">
<path id="Vector" d="M25.2992 12.7027C20.2083 14.5148 16.2602 18.0355 13.6109 23.0059C12.0524 25.9571 12.0005 26.3713 12.0005 32.0666C12.0005 37.6065 12.1044 38.2278 13.507 40.9719C15.481 44.855 18.9096 48.2722 22.8576 50.3432C25.8706 51.9482 26.2862 52 32.0005 52C37.7148 52 38.1304 51.9482 41.0914 50.3432C45.0914 48.2722 48.2602 45.1139 50.3382 41.1272C51.9485 38.176 52.0005 37.7618 52.0005 32.0666C52.0005 26.5266 51.8966 25.9053 50.494 23.1095C48.52 19.2781 44.7797 15.5503 40.9875 13.6864C38.3901 12.392 37.2472 12.1849 32.7797 12.0296C28.9875 11.926 26.9615 12.0814 25.2992 12.7027ZM38.6498 16.7929C40.1044 17.466 41.3511 18.0873 41.3511 18.1908C41.3511 18.2944 40.3122 18.2944 39.0135 18.1908L36.6758 17.9837V19.7959C36.6758 21.2456 36.8836 21.6598 37.9226 21.9186C38.9615 22.1775 39.2213 22.6435 39.533 24.9216C39.9485 27.8728 42.7537 33.6198 43.8447 33.6198C44.1563 33.6198 44.468 33.4127 44.468 33.2056C44.468 31.963 45.8706 30.9793 47.2213 31.2899C49.0395 31.7559 49.1953 33.6198 47.4291 33.6198C45.8187 33.6198 44.8317 35.3802 45.2472 37.7101C45.507 39.2115 45.2992 39.9364 44.468 41.0237C43.8447 41.8003 43.1693 43.0947 42.9615 43.8713C42.7018 44.9068 41.8187 45.6834 39.3252 46.9778C36.4161 48.4275 35.481 48.6346 32.0524 48.6346C27.3771 48.6346 23.6369 47.1331 20.3641 44.0784C16.468 40.3506 14.0265 32.895 16.2602 31.2899C16.9875 30.7722 17.2992 30.8757 18.2862 32.0148L19.481 33.3609L20.6239 32.2219L21.7667 31.0828L22.7018 32.2219C23.6369 33.3609 23.6369 33.3609 24.4161 32.3254C25.4031 31.0828 26.442 27.5621 26.1304 26.6819C25.9745 26.3195 26.3382 25.75 26.9096 25.3876C27.6888 24.9216 27.8966 24.3521 27.7408 23.213C27.533 21.7115 28.4161 21.0902 29.1433 22.2293C29.6628 23.0059 30.4421 22.8506 30.8057 21.8151C30.9615 21.3491 31.5849 20.4172 32.1563 19.7959C33.1434 18.7086 33.1434 18.605 32.2602 18.2944C31.7927 18.0873 29.8187 18.1908 27.8966 18.4497C22.5979 19.2781 21.5589 18.3979 25.6628 16.6376C29.2472 15.0325 35.0135 15.0843 38.6498 16.7929Z" fill="white"/>
<path id="Vector_2" d="M24.9874 32.5842C23.6366 33.9821 23.4288 34.0339 22.6495 33.3608C21.8702 32.6877 21.6624 32.7395 20.5714 33.8785L19.3765 35.1729L20.5714 36.4673C22.0261 38.0206 22.7015 38.0723 23.8964 36.778C24.3639 36.2602 25.1952 35.8978 25.6628 36.0531C26.1823 36.1567 27.1174 35.6907 27.8448 34.9141L29.0917 33.5679L27.7928 32.3253L26.494 31.0309L24.9874 32.5842Z" fill="white"/>
<path id="Vector_3" d="M28.7794 37.6583C27.6884 38.2797 27.3247 38.9527 27.3247 40.1953C27.3247 42.2663 28.0001 42.6805 29.9743 41.9039C31.2731 41.3344 31.6368 41.3862 32.468 42.111C34.2344 43.716 36.6762 42.8359 36.6762 40.6613C36.6762 40.04 36.1047 38.901 35.4294 38.0208C34.3903 36.7264 34.0786 36.6228 33.4032 37.1406C32.8837 37.6066 32.52 37.6583 32.2602 37.2441C31.7927 36.4675 30.3899 36.6228 28.7794 37.6583Z" fill="white"/>
</g>
</g>
</g>
<defs>
<linearGradient id="paint0_linear_643_55" x1="31.0857" y1="17.3714" x2="64" y2="64" gradientUnits="userSpaceOnUse">
<stop stop-color="#FCA034"/>
<stop offset="1" stop-color="#F46C20"/>
</linearGradient>
</defs>
</svg>
