<svg width="64" height="64" viewBox="0 0 64 64" fill="none" xmlns="http://www.w3.org/2000/svg">
<circle cx="32" cy="32" r="32" fill="url(#paint0_linear_644_71)"/>
<g clip-path="url(#clip0_644_71)">
<path d="M36.5054 43.9754L40.7878 39.9785H31.9851H23.1824L27.4648 43.9754C29.7963 46.1959 31.8424 47.9724 31.9851 47.9724C32.1278 47.9724 34.1739 46.1959 36.5054 43.9754Z" fill="white"/>
<path d="M50.7799 36.2036C51.9695 35.1378 51.9695 35.0489 51.9695 26.6554C51.9695 18.2619 51.9695 18.173 50.7799 17.1072L49.6379 15.9969L31.9849 15.9969L14.3318 15.9969L13.1898 17.1072C12.0003 18.173 12.0003 18.2619 12.0003 26.6554C12.0003 35.0489 12.0003 35.1378 13.1898 36.2036L14.3318 37.3139H31.9849H49.6379L50.7799 36.2036ZM17.7102 33.8499C17.7102 32.8284 16.8061 31.9846 15.7117 31.9846C14.9504 31.9846 14.8552 31.4961 14.8552 26.6554C14.8552 21.8147 14.9504 21.3262 15.7117 21.3262C16.8061 21.3262 17.7102 20.4824 17.7102 19.4609C17.7102 18.706 18.5666 18.6616 31.9849 18.6616C45.4031 18.6616 46.2596 18.706 46.2596 19.4609C46.2596 20.4824 47.1637 21.3262 48.2581 21.3262C49.0194 21.3262 49.1145 21.8147 49.1145 26.6554C49.1145 31.4961 49.0194 31.9846 48.2581 31.9846C47.1637 31.9846 46.2596 32.8284 46.2596 33.8499C46.2596 34.6048 45.4031 34.6492 31.9849 34.6492C18.5666 34.6492 17.7102 34.6048 17.7102 33.8499Z" fill="white"/>
<path d="M36.077 30.4747C37.5045 29.1424 37.6948 28.6983 37.6948 26.6554C37.6948 24.6125 37.5045 24.1684 36.077 22.8361C34.6496 21.5038 34.1737 21.3262 31.9849 21.3262C29.7961 21.3262 29.3203 21.5038 27.8928 22.8361C26.4654 24.1684 26.275 24.6125 26.275 26.6554C26.275 28.6983 26.4654 29.1424 27.8928 30.4747C29.3203 31.807 29.7961 31.9846 31.9849 31.9846C34.1737 31.9846 34.6496 31.807 36.077 30.4747ZM30.1768 28.343C29.8437 28.0321 29.6058 27.2771 29.6058 26.6554C29.6058 26.0337 29.8437 25.2787 30.1768 24.9678C30.5099 24.6569 31.3188 24.4349 31.9849 24.4349C33.5552 24.4349 34.3641 25.1899 34.3641 26.6554C34.3641 27.2771 34.1261 28.0321 33.7931 28.343C33.46 28.6539 32.6511 28.8759 31.9849 28.8759C31.3188 28.8759 30.5099 28.6539 30.1768 28.343Z" fill="white"/>
<path d="M45.6885 28.787C46.4499 28.0765 46.4499 25.2342 45.6885 24.5236C45.3555 24.2128 44.3562 23.9907 43.4046 23.9907C41.2634 23.9907 40.5496 24.6569 40.5496 26.6553C40.5496 28.6538 41.2634 29.32 43.4046 29.32C44.3562 29.32 45.3555 29.0979 45.6885 28.787Z" fill="white"/>
<path d="M22.8492 28.787C23.1823 28.4762 23.4202 27.5435 23.4202 26.6553C23.4202 24.6569 22.7064 23.9907 20.5652 23.9907C18.424 23.9907 17.7103 24.6569 17.7103 26.6553C17.7103 28.6538 18.424 29.32 20.5652 29.32C21.5169 29.32 22.5161 29.0979 22.8492 28.787Z" fill="white"/>
</g>
<defs>
<linearGradient id="paint0_linear_644_71" x1="31.0857" y1="17.3714" x2="64" y2="64" gradientUnits="userSpaceOnUse">
<stop stop-color="#FCA034"/>
<stop offset="1" stop-color="#F46C20"/>
</linearGradient>
<clipPath id="clip0_644_71">
<rect width="40" height="40" fill="white" transform="translate(12.0005 12)"/>
</clipPath>
</defs>
</svg>
