<svg width="64" height="64" viewBox="0 0 64 64" fill="none" xmlns="http://www.w3.org/2000/svg">
<g id="Group 343">
<circle id="&#208;&#184;&#208;&#186;&#208;&#190;&#208;&#189;&#208;&#186;&#208;&#176; 1 " cx="32" cy="32" r="32" fill="url(#paint0_linear_641_33)"/>
<path id="Vector" d="M29.7775 13.5504C28.6664 14.627 27.722 15.0884 26.4998 15.0884C25.3331 15.0884 24.222 15.5498 23.3886 16.37C21.9998 17.6004 21.9998 17.7542 21.9998 26.1619C21.9998 34.0569 21.9442 34.6721 21.0553 34.3132C20.4998 34.1082 18.9442 33.8006 17.5553 33.698C14.0553 33.3392 11.9998 34.8259 11.9998 37.6968C11.9998 38.8247 12.2775 40.2089 12.6109 40.7728C13.3331 42.0545 23.6664 49.6419 26.4442 50.9748C28.2775 51.8463 29.722 52.0001 35.4442 52.0001C43.1664 52.0001 45.3886 51.3337 48.4998 48.3602C51.722 45.1817 51.9998 43.9513 51.9998 31.7499C51.9998 20.6764 51.9998 20.6764 50.6109 19.446C49.722 18.5745 48.6664 18.1643 47.2775 18.1643C45.6664 18.1643 45.3331 17.9593 45.3331 17.139C45.3331 16.5238 44.722 15.4985 43.9442 14.7808C42.7775 13.7042 42.0553 13.4991 40.1664 13.6016C38.6109 13.7042 37.2775 13.4478 36.4442 12.8839C34.2775 11.4997 31.6109 11.756 29.7775 13.5504ZM34.9998 16.4213C35.1664 16.8827 35.3331 20.215 35.3331 23.8549V30.4683H36.9998H38.6664V24.6239C38.6664 18.1131 38.8886 17.139 40.3331 17.139C41.7775 17.139 41.9998 18.1131 41.9998 24.6239V30.4683H43.6664H45.3331V26.9309C45.3331 22.727 45.6664 21.753 47.0553 21.753C48.6109 21.753 48.8331 23.3935 48.5553 33.1854C48.3331 42.8234 47.9442 44.0538 44.7775 46.5146C41.4442 49.1292 31.8331 49.6419 27.7775 47.4374C23.9998 45.3868 15.8886 38.9785 15.8886 38.0557C15.8886 36.774 17.3331 36.8766 21.1109 38.4145C22.8331 39.1323 24.4998 39.6962 24.7775 39.6962C25.1109 39.6962 25.3331 35.9538 25.3331 30.0069C25.3331 24.6752 25.4998 19.9587 25.6664 19.4973C26.1109 18.4207 27.8886 18.4207 28.3331 19.4973C28.4998 19.9587 28.6664 22.5732 28.6664 25.3929V30.4683H30.3331H31.9998V23.8549C31.9998 16.5751 32.222 15.601 33.6664 15.601C34.222 15.601 34.8331 15.9599 34.9998 16.4213Z" fill="white"/>
</g>
<defs>
<linearGradient id="paint0_linear_641_33" x1="31.0857" y1="17.3714" x2="64" y2="64" gradientUnits="userSpaceOnUse">
<stop stop-color="#FCA034"/>
<stop offset="1" stop-color="#F46C20"/>
</linearGradient>
</defs>
</svg>
