<svg width="452" height="85" viewBox="0 0 452 85" fill="none" xmlns="http://www.w3.org/2000/svg">
<g filter="url(#filter0_d_709_49)">
<path d="M29.9773 3.9369C29.9648 3.94659 29.7856 3.96114 29.5731 3.97084C29.0562 3.99508 28.5144 4.03387 28.3102 4.06297C28.2185 4.07751 28.0393 4.09691 27.9143 4.11145C27.5767 4.1454 27.1474 4.20844 26.8932 4.25692C26.7556 4.28602 26.4931 4.32965 26.3305 4.34905C26.2722 4.3539 26.1888 4.37814 26.1388 4.39269C26.093 4.41209 25.9638 4.43633 25.8596 4.44603C25.7554 4.45573 25.647 4.47997 25.6178 4.50422C25.5928 4.52361 25.5178 4.54301 25.4595 4.54786C25.4011 4.5527 25.3053 4.5721 25.2469 4.58664C25.1886 4.60604 25.0969 4.63029 25.0385 4.63998C24.9802 4.65453 24.8885 4.67878 24.8301 4.69332C24.7718 4.71272 24.6884 4.73211 24.6426 4.74181C24.5592 4.7612 24.5134 4.77575 24.33 4.82909C24.2717 4.84848 24.18 4.87273 24.1216 4.88243C23.9216 4.92607 23.8299 4.95516 23.7882 4.98425C23.7674 4.9988 23.709 5.02304 23.6632 5.03759C23.534 5.06668 23.4464 5.09578 23.2922 5.14912C23.213 5.17821 23.138 5.18791 23.1172 5.17821C23.1005 5.16367 23.0713 5.17821 23.0588 5.2073C23.0422 5.23154 23.0047 5.24609 22.9713 5.23155C22.9421 5.217 22.9046 5.2267 22.8921 5.25094C22.8713 5.28973 22.567 5.40611 22.4962 5.40611C22.4837 5.40611 22.442 5.4255 22.4003 5.45459C22.3586 5.47884 22.2878 5.50793 22.242 5.52248C22.2003 5.53218 22.1211 5.55642 22.0711 5.57097C22.0169 5.58551 21.9585 5.60006 21.9335 5.60976C21.9127 5.61461 21.8502 5.64855 21.796 5.68249C21.7418 5.71643 21.6626 5.75038 21.6168 5.76493C21.5751 5.77462 21.5001 5.79402 21.4501 5.80856C21.4001 5.81826 21.3375 5.8522 21.3084 5.8813C21.2792 5.91039 21.2083 5.94434 21.1583 5.95889C21.1042 5.97343 21.0416 5.98798 21.0166 5.99767C20.9958 6.00252 20.9333 6.03646 20.8833 6.06556C20.8291 6.0995 20.7874 6.11405 20.7874 6.0995C20.7874 6.0801 20.7207 6.11404 20.6415 6.17223C20.5623 6.23042 20.4957 6.25951 20.4957 6.24496C20.4957 6.22557 20.4498 6.24496 20.3915 6.2886C20.3331 6.33224 20.2873 6.35649 20.2873 6.33709C20.2873 6.32255 20.2206 6.35649 20.1414 6.41467C20.0622 6.47286 19.9955 6.5068 19.9955 6.49226C19.9955 6.47286 19.9497 6.49711 19.8913 6.54075C19.833 6.58439 19.7871 6.60378 19.7871 6.58924C19.7871 6.56984 19.7413 6.59409 19.6829 6.63773C19.6246 6.68137 19.5787 6.70076 19.5787 6.68621C19.5787 6.67167 19.5037 6.71046 19.412 6.77834C19.3203 6.84623 19.2453 6.88986 19.2453 6.87532C19.2453 6.86077 19.2036 6.87532 19.1536 6.90926C19.0995 6.9432 19.0494 6.9723 19.0369 6.9723C19.0244 6.9723 18.9494 7.01594 18.8702 7.06927C18.791 7.12261 18.716 7.16625 18.7035 7.16625C18.691 7.16625 18.6368 7.2002 18.5785 7.23899C18.5201 7.27778 18.466 7.31171 18.4534 7.31657C18.3743 7.33596 18.0783 7.51052 17.9867 7.5881C17.92 7.64144 17.87 7.66568 17.87 7.65114C17.87 7.63659 17.8158 7.66569 17.7449 7.72388C17.6782 7.78206 17.6199 7.816 17.6199 7.7966C17.6199 7.78205 17.5365 7.8354 17.4365 7.91783C17.3323 7.99541 17.2365 8.06329 17.224 8.06329C17.2073 8.06329 17.1406 8.10694 17.0739 8.16512C17.0072 8.21846 16.9531 8.2524 16.9531 8.23301C16.9531 8.21846 16.8864 8.2621 16.8072 8.33483C16.728 8.40271 16.6613 8.44635 16.6613 8.4318C16.6613 8.41241 16.5571 8.48999 16.4321 8.59667C16.307 8.70335 16.2029 8.78093 16.2029 8.76638C16.2029 8.75183 16.132 8.80032 16.0486 8.87305C15.9653 8.94579 15.8903 9.00397 15.8819 8.99428C15.8736 8.98943 15.7652 9.07186 15.6402 9.17854C15.5152 9.28521 15.4026 9.37249 15.386 9.37249C15.3735 9.37249 15.2859 9.44038 15.1984 9.52281C15.1109 9.60524 15.0359 9.65858 15.0359 9.63918C15.0359 9.61979 14.9442 9.69737 14.8275 9.80889C14.715 9.92042 14.6191 9.998 14.6191 9.9786C14.6191 9.95921 14.4691 10.0901 14.2898 10.2647C14.1106 10.4392 13.9481 10.5847 13.9314 10.5847C13.9147 10.5847 13.7814 10.7059 13.6355 10.8562C13.4896 11.0066 13.3688 11.1132 13.3688 11.0938C13.3688 11.0744 13.2021 11.2296 12.9937 11.443C12.7895 11.6515 12.4769 11.9618 12.3018 12.1364C11.9184 12.5194 9.70114 15.133 9.70114 15.2008C9.70114 15.2299 9.56777 15.419 9.40939 15.6275C9.24685 15.836 9.11765 16.0203 9.11765 16.0397C9.11765 16.0542 8.97594 16.2628 8.80507 16.5003C8.63419 16.7379 8.49248 16.9416 8.49248 16.9561C8.49248 16.9755 8.42163 17.0968 8.33828 17.2277C8.08821 17.601 7.8048 18.0617 7.78813 18.1199C7.77979 18.149 7.71728 18.2508 7.65476 18.3478C7.58808 18.4447 7.5339 18.5369 7.5339 18.5563C7.5339 18.5708 7.42137 18.7793 7.28383 19.0169C7.14629 19.2594 7.03376 19.463 7.03376 19.4727C7.03376 19.4873 6.95874 19.6424 6.86289 19.8218C6.77119 20.0012 6.65866 20.2243 6.61282 20.3116C6.57114 20.4037 6.49195 20.5589 6.44611 20.6558C6.21271 21.131 5.7751 22.1202 5.59588 22.5857C5.53337 22.7457 5.42917 23.0075 5.36666 23.1676C5.09158 23.8464 4.79984 24.7192 4.45392 25.8829C3.71205 28.3704 3.23693 31.0034 3.03271 33.7624C2.97436 34.543 2.99936 38.9167 3.06605 39.6295C3.13273 40.3277 3.18691 40.8175 3.26193 41.3509C3.29944 41.6175 3.34529 41.957 3.36613 42.1024C3.3828 42.2479 3.43281 42.5437 3.47032 42.757C3.512 42.9704 3.55785 43.2371 3.57868 43.3486C3.64954 43.7462 3.69538 43.9693 3.74123 44.1875C3.76623 44.3087 3.80374 44.4832 3.82458 44.5754C3.84542 44.6675 3.8996 44.8954 3.94545 45.0845C3.99129 45.2688 4.05798 45.5548 4.09966 45.7149C4.13717 45.8749 4.20802 46.1367 4.25386 46.2967C4.29971 46.4567 4.34972 46.6507 4.36639 46.7331C4.38723 46.8107 4.44975 47.0289 4.51226 47.218C4.57478 47.4023 4.64146 47.6205 4.6623 47.7029C4.68314 47.7805 4.71648 47.892 4.73732 47.9453C4.85402 48.2411 5.15827 49.1527 5.15827 49.2012C5.15827 49.2351 5.17911 49.2836 5.20411 49.3127C5.23329 49.3467 5.28747 49.4873 5.33331 49.6279C5.37499 49.7685 5.42917 49.8946 5.45001 49.8994C5.47502 49.9091 5.49169 49.9431 5.49169 49.977C5.49169 50.074 6.10852 51.5481 6.16687 51.5868C6.18354 51.6014 6.20021 51.6547 6.20021 51.7081C6.20021 51.7566 6.21271 51.8002 6.23355 51.8002C6.25022 51.8002 6.28357 51.8487 6.30857 51.9117C6.40026 52.1348 6.59615 52.5518 6.62115 52.576C6.63783 52.5906 6.69201 52.6972 6.74202 52.8185C6.79203 52.9397 6.84621 53.0464 6.86289 53.0609C6.87539 53.0755 6.91707 53.1482 6.95041 53.2306C6.98375 53.3082 7.02126 53.3858 7.03376 53.4003C7.07544 53.4488 7.16296 53.6185 7.1838 53.701C7.20047 53.7495 7.22548 53.7882 7.24632 53.7882C7.26716 53.7882 7.28383 53.8125 7.28383 53.8416C7.28383 53.8707 7.39636 54.0743 7.5339 54.3022C7.67143 54.5253 7.78396 54.7241 7.78396 54.7386C7.78396 54.7532 7.80897 54.7968 7.83398 54.8308C7.91733 54.9374 7.96318 55.0102 8.09655 55.2429C8.1674 55.3641 8.23825 55.4805 8.25492 55.5096C8.2966 55.5726 8.6967 56.1981 8.80507 56.3775C8.85091 56.4503 8.93843 56.5812 8.99678 56.6588C9.0593 56.7412 9.12598 56.8285 9.14265 56.8624C9.30103 57.0903 9.53026 57.4152 9.61778 57.5219C9.67613 57.5898 9.81783 57.774 9.93036 57.9292C10.4597 58.6517 11.0682 59.379 11.1223 59.3548C11.189 59.3257 50.6203 13.5134 50.6245 13.4553C50.6245 13.4262 50.6119 13.3971 50.5869 13.3971C50.5661 13.3971 50.3577 13.1837 50.1285 12.9219C49.62 12.3449 49.1324 11.826 49.0824 11.8066C49.0449 11.7872 48.8115 11.5545 48.5572 11.2733C48.4781 11.1908 48.3947 11.1181 48.3739 11.1181C48.3572 11.1181 48.2822 11.0599 48.2113 10.9823C47.8862 10.6429 47.8362 10.5896 47.8362 10.6138C47.8362 10.6284 47.7862 10.5799 47.7237 10.512C47.6612 10.4441 47.5945 10.3908 47.5778 10.3908C47.557 10.3908 47.507 10.352 47.4653 10.3035C47.3569 10.192 47.3111 10.1532 47.086 9.9786C46.8818 9.81859 46.861 9.80405 46.7151 9.66343C46.6609 9.61009 46.5901 9.56645 46.5567 9.56645C46.5275 9.56645 46.49 9.53251 46.4775 9.49372C46.4609 9.45493 46.4317 9.42099 46.4025 9.42099C46.3775 9.42099 46.3233 9.37734 46.2816 9.32401C46.2441 9.27066 46.1858 9.22703 46.1566 9.22703C46.1024 9.22703 45.9816 9.1349 45.8399 8.98458C45.8023 8.94579 45.7065 8.87306 45.6273 8.82457C45.3189 8.63546 45.198 8.55303 45.173 8.50939C45.1605 8.48515 45.1063 8.4512 45.0563 8.4318C45.0021 8.41241 44.9355 8.36877 44.9063 8.32998C44.8521 8.27179 44.6895 8.16512 44.2644 7.91783C44.1644 7.86449 44.0852 7.7966 44.0852 7.77236C44.0852 7.74812 44.056 7.73841 44.0227 7.75296C43.9894 7.77236 43.9602 7.76266 43.9602 7.73357C43.9602 7.70932 43.881 7.65114 43.7851 7.60265C43.6851 7.55901 43.5601 7.48628 43.5017 7.44264C43.4434 7.399 43.26 7.29232 43.0933 7.20989C42.9224 7.12746 42.7515 7.02563 42.714 6.98684C42.6765 6.94805 42.6223 6.92381 42.5932 6.93836C42.564 6.94806 42.5431 6.93351 42.5431 6.89957C42.5431 6.87047 42.5265 6.85593 42.5056 6.87047C42.4848 6.88987 42.4598 6.88017 42.4515 6.86077C42.4348 6.81228 40.6843 5.96373 40.601 5.96373C40.5676 5.96373 40.5426 5.94918 40.5426 5.92979C40.5426 5.91524 40.5009 5.89584 40.4509 5.89584C40.3967 5.89099 40.1925 5.80371 39.9883 5.70674C39.7882 5.60976 39.6132 5.54188 39.6007 5.55643C39.5882 5.57098 39.4715 5.52733 39.3423 5.45945C39.2131 5.39156 39.0631 5.33822 39.0131 5.33822C38.9589 5.33822 38.9297 5.31883 38.9422 5.29458C38.9547 5.27034 38.9339 5.26549 38.9005 5.28004C38.8672 5.29458 38.788 5.27519 38.7213 5.24125C38.6588 5.20246 38.5754 5.17336 38.5421 5.17821C38.5088 5.17821 38.3962 5.14427 38.2962 5.09578C38.1962 5.04729 38.1045 5.0182 38.092 5.02789C38.0836 5.04244 38.0044 5.02304 37.9211 4.98425C37.7877 4.92607 37.5585 4.86303 37.3751 4.83394C37.3418 4.82909 37.2626 4.80485 37.2042 4.77576C37.1417 4.74666 37.0792 4.73696 37.0667 4.75151C37.0542 4.7709 37.0417 4.76121 37.0417 4.73696C37.0417 4.71272 37 4.68847 36.95 4.68847C36.7958 4.67392 36.5832 4.62544 36.5374 4.5915C36.5124 4.57695 36.4332 4.5527 36.3624 4.543C36.2332 4.52846 36.129 4.50907 35.9164 4.46058C35.858 4.44603 35.7205 4.42178 35.6038 4.40239C35.4913 4.38784 35.3579 4.35875 35.3121 4.3442C35.2245 4.31026 35.1954 4.30541 34.8745 4.26177C34.7703 4.24723 34.6202 4.22298 34.541 4.20844C34.3702 4.17934 34.1576 4.1551 33.8325 4.11631C33.7075 4.10176 33.5199 4.07751 33.4157 4.06297C33.3115 4.04358 33.0781 4.02418 32.8948 4.00963C32.7114 3.99993 32.3821 3.98053 32.1654 3.96599C31.6569 3.93204 29.9982 3.91265 29.9773 3.9369Z" fill="url(#paint0_linear_709_49)"/>
</g>
<g filter="url(#filter1_d_709_49)">
<path d="M54.8635 25.9431C43.9407 38.594 35 48.9776 35 49.0116C35 49.0797 35.5375 49.7074 36.0919 50.2913C36.2598 50.4665 36.4194 50.6368 36.4488 50.666C36.4824 50.7 36.516 50.7292 36.5286 50.7292C36.5412 50.7292 36.6042 50.7828 36.6672 50.8509C37.0493 51.2499 37.1459 51.3423 37.3811 51.5467C37.5281 51.6683 37.6457 51.7851 37.6457 51.8094C37.6457 51.8289 37.6751 51.8484 37.7087 51.8484C37.7381 51.8484 37.7843 51.8776 37.801 51.9116C37.8346 51.97 37.9522 52.0819 38.1496 52.2376C38.2 52.2766 38.2798 52.3495 38.326 52.3982C38.3764 52.442 38.431 52.4809 38.452 52.4809C38.4688 52.4809 38.5234 52.5198 38.5654 52.5685C38.6745 52.6804 38.7207 52.7193 38.9475 52.8945C39.0525 52.9724 39.1617 53.0648 39.1911 53.0989C39.2163 53.1281 39.2793 53.1719 39.3255 53.1865C39.3717 53.201 39.4094 53.24 39.4094 53.2643C39.4094 53.2886 39.4388 53.3081 39.4724 53.3081C39.506 53.3081 39.569 53.347 39.611 53.3908C39.6488 53.4395 39.737 53.5076 39.8 53.5368C39.863 53.5708 39.9386 53.6195 39.968 53.6487C40.0688 53.7509 40.3375 53.9406 40.3753 53.9406C40.3963 53.9406 40.4299 53.9796 40.4551 54.0282C40.4761 54.072 40.5013 54.1012 40.5097 54.0915C40.5223 54.072 40.7365 54.1985 41.085 54.437C41.19 54.5099 41.3832 54.6219 41.5092 54.6948C41.6352 54.763 41.7486 54.8408 41.7612 54.8603C41.7738 54.8846 41.9039 54.9625 42.0551 55.0354C42.2063 55.1084 42.3743 55.2057 42.4331 55.2495C42.4919 55.2982 42.643 55.3858 42.769 55.4442C43.2814 55.6972 43.3989 55.7604 43.3989 55.7994C43.3989 55.8237 43.4199 55.8286 43.4409 55.814C43.4661 55.7994 43.4829 55.8042 43.4829 55.8334C43.4829 55.8626 43.5123 55.8724 43.5459 55.8578C43.5795 55.8383 43.6089 55.8529 43.6089 55.8869C43.6089 55.9161 43.6257 55.9307 43.6467 55.9161C43.6677 55.8967 43.6929 55.9113 43.7013 55.9356C43.7097 55.9648 43.7559 55.994 43.8105 55.9989C43.8609 55.9989 43.9029 56.0183 43.9029 56.0378C43.9029 56.0718 44.2724 56.2421 44.3522 56.2421C44.3816 56.2421 44.4068 56.2616 44.4068 56.2859C44.4068 56.3103 44.4278 56.3151 44.4488 56.3005C44.474 56.2859 44.4908 56.2957 44.4908 56.3249C44.4908 56.3589 44.5202 56.3735 44.5538 56.3541C44.5874 56.3395 44.6168 56.3492 44.6168 56.3784C44.6168 56.4076 44.6378 56.4125 44.6588 56.3979C44.684 56.3833 44.7008 56.393 44.7008 56.4222C44.7008 56.4514 44.7176 56.466 44.7386 56.4514C44.7596 56.4368 44.9906 56.5244 45.2509 56.646C45.5155 56.7677 45.7633 56.8698 45.8052 56.8698C45.8514 56.865 45.99 56.9185 46.1202 56.9866C46.2504 57.0499 46.4142 57.1131 46.4856 57.1277C46.557 57.1374 46.6829 57.1764 46.7627 57.2153C46.9181 57.2932 47.2121 57.3856 47.401 57.4197C47.464 57.4343 47.5522 57.4635 47.5984 57.4926C47.6404 57.517 47.7454 57.551 47.8252 57.5608C47.9092 57.5754 48.0142 57.6094 48.0646 57.6386C48.1108 57.6727 48.1612 57.6824 48.1738 57.6678C48.1864 57.6532 48.2619 57.6727 48.3417 57.7116C48.4215 57.7505 48.5055 57.77 48.5265 57.7554C48.5475 57.7457 48.6021 57.7554 48.6525 57.7895C48.7029 57.8187 48.7953 57.8527 48.8541 57.8624C48.9843 57.8819 49.1018 57.9062 49.3832 57.9792C49.5008 58.0036 49.652 58.0376 49.7192 58.0522C49.8535 58.0765 49.9837 58.1009 50.1601 58.1398C50.2189 58.1544 50.3575 58.1787 50.4751 58.1982C50.5885 58.2176 50.7396 58.2371 50.811 58.2517C50.8782 58.2614 51.021 58.2858 51.126 58.3004C51.231 58.315 51.3696 58.3344 51.4409 58.349C51.7181 58.3928 51.9533 58.4269 52.1549 58.4463C53.3433 58.5583 53.4903 58.568 54.9055 58.5631C56.3039 58.5631 56.7743 58.5388 57.5092 58.4463C57.6142 58.4317 57.8115 58.4074 57.9501 58.3928C58.0887 58.3734 58.2609 58.3539 58.3281 58.3442C58.3995 58.3296 58.5297 58.3101 58.622 58.3004C58.7144 58.2858 58.8488 58.2614 58.916 58.2468C59.0378 58.2225 59.2268 58.1933 59.5039 58.1495C59.5753 58.1398 59.6761 58.1203 59.7349 58.1057C59.7937 58.0911 59.8819 58.0668 59.9365 58.0571C59.9869 58.0425 60.0499 58.0182 60.0793 57.9987C60.1087 57.9744 60.1129 57.9841 60.0919 58.023C60.0667 58.0717 60.0793 58.0717 60.1591 58.023C60.2136 57.989 60.3186 57.9549 60.3858 57.95C60.4572 57.9403 60.558 57.9208 60.6168 57.9062C60.6756 57.8868 60.7596 57.8673 60.8058 57.8576C60.852 57.8479 60.936 57.8235 60.9948 57.8089C61.0535 57.7895 61.1375 57.77 61.1837 57.7603C61.2677 57.7408 61.3643 57.7165 61.5533 57.6581C61.6037 57.6435 61.6835 57.624 61.7297 57.6143C61.906 57.5754 62.0026 57.5462 62.0446 57.517C62.0656 57.5024 62.1286 57.4781 62.179 57.4635C62.2966 57.4343 62.3134 57.4294 62.5486 57.3467C62.7837 57.264 62.8005 57.2591 62.9181 57.2299C62.9685 57.2153 63.0315 57.191 63.0525 57.1764C63.0735 57.1618 63.1323 57.1374 63.1785 57.1229C63.2247 57.1131 63.3003 57.0937 63.3423 57.0839C63.3885 57.0693 63.464 57.0353 63.5102 57.0061C63.5606 56.9769 63.5984 56.9671 63.5984 56.9769C63.5984 56.9915 63.6824 56.9623 63.7874 56.9088C63.8924 56.8552 63.9764 56.826 63.9764 56.8406C63.9764 56.8504 64.0352 56.8309 64.1024 56.7871C64.1738 56.7433 64.2283 56.7239 64.2283 56.7385C64.2283 56.7531 64.2745 56.7287 64.3333 56.6849C64.3921 56.6411 64.4383 56.6168 64.4383 56.6314C64.4383 56.646 64.5433 56.6071 64.6693 56.5438C64.7953 56.4757 64.9003 56.4368 64.9003 56.4514C64.9003 56.4708 64.9465 56.4465 65.0052 56.4027C65.064 56.3589 65.1102 56.3346 65.1102 56.3443C65.1102 56.3589 65.211 56.3151 65.3328 56.2567C65.4504 56.1935 65.5596 56.14 65.5722 56.14C65.5848 56.1351 65.6982 56.0816 65.8241 56.0183C65.9501 55.9502 66.0635 55.9015 66.0761 55.9015C66.0887 55.9015 66.1433 55.8724 66.2021 55.8383C66.2609 55.7994 66.3155 55.7653 66.3281 55.7604C66.3407 55.7604 66.4541 55.702 66.5801 55.6339C66.706 55.5658 66.832 55.5026 66.853 55.4977C66.8782 55.488 66.9664 55.4296 67.0546 55.3663C67.1386 55.3031 67.21 55.2641 67.21 55.2836C67.21 55.2982 67.2688 55.2641 67.336 55.2057C67.4073 55.1474 67.4619 55.1182 67.4619 55.1328C67.4619 55.1474 67.5207 55.1133 67.5963 55.0549C67.6677 54.9916 67.7139 54.9673 67.6971 55.0014C67.6803 55.0306 67.7475 54.9965 67.8441 54.9235C67.9407 54.8505 68.0289 54.7922 68.0457 54.7922C68.0583 54.7922 68.1339 54.7386 68.2136 54.6754C68.2934 54.6073 68.3438 54.5829 68.327 54.617C68.306 54.651 68.39 54.5975 68.5076 54.5002C68.6252 54.4029 68.7218 54.3348 68.7218 54.3542C68.7218 54.3688 68.789 54.325 68.8688 54.2521C68.9486 54.1839 69.0157 54.1401 69.0157 54.1547C69.0157 54.1742 69.0787 54.1401 69.1543 54.0769C69.2257 54.0136 69.2971 53.965 69.3097 53.965C69.3223 53.965 69.4189 53.892 69.5281 53.8044C69.6373 53.7217 69.7381 53.6487 69.7507 53.6487C69.7675 53.6487 69.8556 53.5806 69.9438 53.4979C70.032 53.4151 70.1076 53.3616 70.1076 53.3811C70.1076 53.3957 70.221 53.3081 70.3596 53.1865C70.4982 53.0648 70.6115 52.9772 70.6115 52.9918C70.6115 53.0113 70.6955 52.9432 70.8005 52.841C70.9055 52.7437 70.9895 52.6804 70.9895 52.6999C70.9895 52.7193 71.0861 52.6415 71.1995 52.5296C71.3171 52.4177 71.4094 52.3398 71.4094 52.3593C71.4094 52.3739 71.569 52.2328 71.7622 52.0479C71.9554 51.8581 72.1276 51.7024 72.1444 51.7024C72.1612 51.7024 72.2997 51.5759 72.4551 51.4153C72.6063 51.2596 72.7533 51.1234 72.7827 51.1136C72.8079 51.1039 73.0094 50.8995 73.232 50.666C73.4504 50.4324 73.6436 50.2427 73.6562 50.2524C73.6856 50.2719 75.7349 47.8974 75.7349 47.8438C75.7349 47.8195 75.9071 47.586 76.1129 47.3281C76.3228 47.0653 76.4908 46.8366 76.4908 46.8172C76.4908 46.7977 76.6504 46.569 76.8478 46.3063C77.0451 46.0435 77.2047 45.81 77.2047 45.7905C77.2047 45.771 77.2803 45.6494 77.3727 45.5229C77.4651 45.3964 77.5407 45.2747 77.5407 45.2601C77.5407 45.2407 77.6373 45.0898 77.7507 44.9195C77.8682 44.7492 77.9606 44.5935 77.9606 44.5741C77.9606 44.5497 78.0278 44.4427 78.1076 44.3259C78.1874 44.214 78.2546 44.1021 78.2546 44.0826C78.2546 44.0631 78.3008 43.9756 78.3596 43.888C78.4184 43.8004 78.4646 43.7128 78.4646 43.6982C78.4646 43.6788 78.5318 43.5571 78.6115 43.4306C78.6913 43.3041 78.7585 43.1824 78.7585 43.163C78.7585 43.1387 78.8047 43.0511 78.8635 42.9635C78.9223 42.8759 78.9685 42.7883 78.9685 42.7737C78.9685 42.7543 79.0021 42.6813 79.0483 42.6132C79.1575 42.4331 79.3423 42.0487 79.7118 41.241C79.8168 41.0123 79.9386 40.7496 79.9806 40.6571C80.5265 39.465 81.4 36.9153 81.7822 35.4021C81.8325 35.2026 81.8913 34.9836 81.9081 34.9155C81.9963 34.6333 82.3617 32.8524 82.4541 32.2637C82.4751 32.1274 82.5213 31.8355 82.5549 31.6068C82.6976 30.7164 82.8614 29.2031 82.895 28.4781C82.9118 28.1667 82.9412 27.9088 82.9622 27.9088C82.9832 27.9088 83 27.106 83 26.0112C83 24.9164 82.9832 24.1135 82.9622 24.1135C82.9412 24.1135 82.9118 23.8556 82.8992 23.5394C82.874 23.0139 82.8026 22.2645 82.706 21.486C82.685 21.3109 82.6472 20.9848 82.622 20.7561C82.5927 20.5275 82.5465 20.2112 82.5171 20.0506C82.4877 19.89 82.4415 19.6273 82.4121 19.4667C82.3869 19.3062 82.3449 19.0775 82.3197 18.9558C82.2987 18.8342 82.2693 18.6931 82.2609 18.6395C82.2315 18.4449 82.0719 17.7102 82.0173 17.4961C81.9837 17.3745 81.9375 17.1798 81.9081 17.0582C81.8242 16.6981 81.6478 16.0315 81.5638 15.7444C81.5176 15.5984 81.4672 15.4087 81.4462 15.3308C81.4294 15.2481 81.337 14.9562 81.2404 14.674C81.148 14.3917 81.0682 14.129 81.0682 14.0852C81.0682 14.0414 81.0388 13.9781 81.0052 13.9441C80.9717 13.91 80.9423 13.8419 80.9423 13.7932C80.9423 13.6911 80.7281 13.0974 80.6819 13.078C80.6651 13.0682 80.6483 13.0099 80.6483 12.9466C80.6483 12.8834 80.6273 12.825 80.6021 12.8152C80.5811 12.8055 80.5559 12.7666 80.5475 12.7276C80.5391 12.6595 80.4593 12.4503 80.2745 11.9978C80.2367 11.9053 80.1948 11.8177 80.178 11.8129C80.157 11.8032 80.1444 11.7691 80.1444 11.7399C80.1444 11.6815 79.8084 10.8738 79.7706 10.83C79.7538 10.8154 79.6446 10.577 79.5186 10.2948C79.3927 10.0126 79.2793 9.77413 79.2667 9.75953C79.2541 9.74493 79.2121 9.66708 79.1785 9.58923C79.1449 9.50651 79.1029 9.43353 79.0903 9.41893C79.0735 9.40434 79.0231 9.30701 78.9727 9.19997C78.9223 9.09292 78.8131 8.88369 78.7333 8.73772C78.5654 8.42631 78.5738 8.43604 78.2882 7.9446C78.1664 7.73537 78.0488 7.52615 78.0236 7.47749C78.0026 7.4337 77.9186 7.30719 77.8472 7.19527C77.7717 7.08823 77.7087 6.98118 77.7087 6.96658C77.7087 6.93739 77.3139 6.3389 77.2173 6.21725C77.1879 6.1832 77.1627 6.13454 77.1627 6.11508C77.1627 6.09075 77.1207 6.02262 77.0703 5.95451C77.0157 5.88639 76.9192 5.75014 76.8478 5.64796C76.7806 5.54578 76.6924 5.429 76.6588 5.38522C76.6252 5.34142 76.5496 5.23438 76.4992 5.15166C76.4446 5.06407 76.3522 4.9327 76.2892 4.85484C76.2262 4.77699 76.0709 4.5775 75.9407 4.40233C75.8105 4.23203 75.6383 4.00334 75.5543 3.89629C75.3864 3.67247 74.8992 3.0983 74.7984 3.00099C74.7354 2.9426 72.6189 5.38035 54.8635 25.9431Z" fill="url(#paint1_linear_709_49)"/>
</g>
<path d="M61.6619 4.92222C61.3211 5.03583 60.6853 5.43099 60.2448 5.80145C59.7877 6.18673 58.8527 7.24378 58.4829 7.78713C57.3858 9.40728 57.0742 10.8002 57.5271 12.0845C57.9718 13.3539 59.1685 14.6481 60.1783 14.9494C61.3377 15.2952 62.6675 14.5987 64.1136 12.8798C64.7951 12.0697 65.219 11.4078 65.5805 10.6026C65.6511 10.4446 65.7218 10.2668 65.7301 10.2075C65.7384 10.1531 65.7467 10.1038 65.755 10.0939C65.7592 10.0889 65.7675 10.0593 65.7717 10.0346C65.7758 10.005 65.7883 9.97533 65.7924 9.96051C65.7966 9.94569 65.8049 9.92099 65.809 9.89629C65.8423 9.73823 65.8922 9.63944 65.942 9.63944C65.9877 9.63944 66.0002 9.51101 66.0002 8.90345C66.0002 8.2712 65.9919 8.16253 65.9337 8.14771C65.8963 8.13783 65.8174 7.97977 65.7509 7.77725C65.3769 6.62634 64.3131 5.37665 63.3573 4.96667C63.1163 4.86294 63.0207 4.84813 62.4763 4.85307C62.1065 4.85307 61.7865 4.8827 61.6619 4.92222ZM62.7838 7.22896C63.2119 7.48088 63.7812 8.19217 63.9266 8.65154C64.1676 9.40728 63.831 10.163 62.6592 11.5066C61.8613 12.4154 61.4541 12.7069 60.972 12.7118C60.5731 12.7167 60.2947 12.5439 59.8667 12.04C59.1644 11.2003 59.0896 10.5631 59.5841 9.67402C59.8584 9.17513 60.8058 8.03904 61.346 7.55003C61.8738 7.07584 62.3475 6.96717 62.7838 7.22896Z" fill="#F28F1F"/>
<path d="M53.8328 13.3887C52.9352 14.4655 52.1249 15.4583 52.0252 15.6015C51.7551 16.0016 51.4226 16.6784 51.3146 17.0686C50.8866 18.5801 51.3146 20.2546 52.4033 21.3264C52.956 21.8747 53.7913 22.2353 54.5102 22.2402C54.9132 22.2402 55.441 22.1612 55.5075 22.0822C55.5283 22.0575 55.5781 22.0377 55.6197 22.0377C55.7443 22.0377 56.3801 21.6623 56.6793 21.4153C56.9619 21.1782 60.1824 17.4143 60.1824 17.3205C60.1824 17.2415 57.2071 13.7245 57.1531 13.7443C57.1281 13.7542 56.4882 14.4951 55.7319 15.3941L54.3564 17.0241L54.4894 18.1355C54.5642 18.748 54.6348 19.2617 54.6514 19.2864C54.6681 19.3062 55.1792 18.7283 55.7901 18.0021L56.8996 16.6784L57.2112 17.0488L57.5229 17.4242L56.6004 18.5159C56.0477 19.1629 55.6031 19.647 55.4992 19.7112C55.0462 19.9829 54.4478 20.0224 54.0364 19.81C53.8203 19.7013 53.4297 19.2617 53.3134 18.9999C53.2136 18.7678 53.1472 18.259 53.1721 17.9429C53.1846 17.7848 53.2427 17.5131 53.3092 17.3403C53.4131 17.0538 53.5502 16.871 54.6847 15.5126L55.948 14.0061L55.8441 13.2899C55.6695 12.05 55.5532 11.4178 55.5075 11.4277C55.4867 11.4277 54.7304 12.3118 53.8328 13.3887Z" fill="#F28F1F"/>
<path d="M48.4933 19.7553C48.1567 20.1554 47.8824 20.5061 47.8824 20.5308C47.8824 20.5604 48.4933 21.2964 49.2413 22.1707L50.6043 23.7662H47.8658C45.173 23.7662 45.1232 23.7662 44.9445 23.8699C44.7326 23.9934 44.4541 24.349 44.3877 24.5911C44.3129 24.8677 44.3627 25.3517 44.4957 25.6284C44.5663 25.7765 45.3933 26.799 46.6732 28.3352C47.8076 29.6936 48.7551 30.8099 48.7759 30.8198C48.8008 30.8247 49.1 30.4987 49.4408 30.0887L50.0599 29.3429L48.6928 27.7178L47.3214 26.0877H50.0225C51.8343 26.0877 52.7776 26.068 52.8857 26.0334C52.9896 25.9988 53.1267 25.8852 53.268 25.7222C53.6295 25.2875 53.6918 24.7936 53.4467 24.2404C53.3802 24.0872 52.6821 23.2228 51.2484 21.5187C50.0973 20.1455 49.1416 19.0242 49.1291 19.0242C49.1166 19.0242 48.8299 19.3503 48.4933 19.7553Z" fill="#F28F1F"/>
<path d="M42.4928 26.8337C42.1188 27.2783 41.8154 27.6586 41.8154 27.6883C41.8196 27.7179 42.8959 29.0318 44.209 30.6026L46.6026 33.4625L47.2841 32.6524C47.6581 32.2079 47.9656 31.8177 47.9656 31.793C47.9656 31.7633 46.8851 30.4593 45.5637 28.8885L43.166 26.0335L42.4928 26.8337Z" fill="#F28F1F"/>
<path d="M40.5061 29.6888C40.1903 29.8271 39.9451 29.9802 39.7165 30.1975C39.6043 30.3013 38.8023 31.2299 37.9338 32.2524L36.363 34.1146L36.5126 35.2506C36.5957 35.873 36.6622 36.4509 36.6622 36.525C36.6622 36.6041 36.6913 36.6732 36.7246 36.693C36.7703 36.7127 37.3645 36.041 38.74 34.4109C39.808 33.1365 40.7305 32.0696 40.7845 32.035C40.9299 31.9362 41.0463 31.9511 41.1876 32.0943C41.3787 32.282 41.3704 32.5389 41.1626 32.8155C40.9507 33.102 37.4144 37.2709 37.3645 37.2907C37.3437 37.3005 37.3271 37.3351 37.3271 37.3648C37.3271 37.429 40.236 40.9064 40.29 40.9064C40.3399 40.9064 44.2751 36.2188 44.5078 35.878C44.6283 35.7051 44.8029 35.3741 44.8984 35.142C45.181 34.4406 45.1727 33.7886 44.8652 33.2057C44.5245 32.5734 43.9635 32.0548 43.5105 31.9708C43.3027 31.9313 42.9994 31.9609 42.8498 32.035C42.7875 32.0647 42.7833 32.0449 42.8165 31.8325C42.8913 31.3731 42.721 30.7853 42.3968 30.3655C42.3054 30.2469 42.2389 30.1383 42.2514 30.1234C42.2639 30.1037 42.2597 30.0987 42.2472 30.1136C42.2306 30.1234 42.1641 30.079 42.0976 30.0148C42.027 29.9456 41.8691 29.832 41.7403 29.7579C41.4286 29.5801 40.8261 29.5455 40.5061 29.6888ZM42.8997 34.0849C43.0326 34.2479 43.0534 34.4159 42.962 34.6233C42.9287 34.6974 42.3387 35.4235 41.653 36.2385L40.4022 37.7204L40.1113 37.3746L39.8204 37.0289L41.0338 35.5816C41.7029 34.7814 42.3096 34.0849 42.3761 34.0355C42.5631 33.8972 42.7542 33.912 42.8997 34.0849Z" fill="#F28F1F"/>
<path d="M34.0777 36.841C33.737 37.2411 33.4627 37.5868 33.4627 37.6165C33.4669 37.6461 34.0611 38.3821 34.7925 39.2514L36.1181 40.8321L33.3879 40.8568L30.6577 40.8815L30.4915 41C29.9555 41.3853 29.7851 42.0176 30.0469 42.6498C30.1591 42.9165 30.45 43.2821 32.2368 45.4011C33.7785 47.2337 34.2855 47.8659 34.2689 47.9301C34.2564 47.9795 34.2689 48.019 34.2938 48.019C34.3187 48.019 34.3271 47.9943 34.3146 47.9696C34.3021 47.94 34.3146 47.9203 34.3437 47.9203C34.4185 47.9203 35.582 46.5273 35.582 46.4384C35.582 46.3989 34.9795 45.6481 34.2439 44.7738L32.9017 43.1783H35.636C38.628 43.1783 38.4992 43.1882 38.7984 42.882C39.1682 42.4917 39.2513 41.9632 39.0269 41.4001C38.9147 41.1087 38.707 40.8518 36.8162 38.5945C35.6693 37.2312 34.7218 36.1149 34.7094 36.1149C34.6969 36.1149 34.4143 36.4409 34.0777 36.841Z" fill="#F28F1F"/>
<path d="M28.4136 44.5867C27.8692 44.7299 27.4869 44.9423 26.8553 45.4412C26.4855 45.7326 26.2237 45.9994 25.6876 46.6366C24.3495 48.2123 23.8259 49.3434 23.8218 50.6376C23.8218 51.6304 24.1418 52.4405 24.8981 53.3494C25.3635 53.9125 25.6959 54.2039 26.1281 54.4459C26.5935 54.7077 26.9883 54.8065 27.4163 54.767C27.8859 54.7275 28.1809 54.6287 28.7128 54.3126C29.9802 53.5667 31.5095 51.7292 32.112 50.2177C32.4237 49.4373 32.5151 48.6173 32.3613 47.9208C32.0912 46.6662 30.882 45.135 29.8182 44.6954C29.3902 44.5225 28.8167 44.478 28.4136 44.5867ZM29.307 46.9873C29.6727 47.2046 30.1631 47.7974 30.3418 48.2271C30.4664 48.5284 30.4789 48.5926 30.4623 48.9186C30.4373 49.5262 30.2088 49.951 29.3694 50.9586C28.3596 52.1787 27.8983 52.5146 27.3456 52.4454C27.0007 52.4059 26.7306 52.2182 26.3317 51.749C25.5131 50.7808 25.538 50.0745 26.4314 48.8742C26.8221 48.3506 27.0257 48.1085 27.4163 47.6936C28.21 46.849 28.7377 46.6514 29.307 46.9873Z" fill="#F28F1F"/>
<path d="M20.4227 53.0181L18 55.8978L18.0125 56.4411C18.0291 57.0833 18.241 58.4861 18.3283 58.5256C18.3615 58.5454 18.7729 58.0959 19.3589 57.3994C19.8949 56.7622 20.3396 56.2386 20.3479 56.2287C20.3728 56.2041 23.7595 60.2742 23.772 60.3434C23.7886 60.4372 23.9465 60.4421 23.9465 60.3483C23.9465 60.3088 24.2374 59.9482 24.5906 59.5382C24.9439 59.1332 25.2347 58.7677 25.2347 58.7331C25.2347 58.6936 24.4535 57.7353 23.4936 56.5943L21.7566 54.5296L22.517 53.6306L23.2817 52.7365L23.1985 52.2179C23.1528 51.9314 23.0656 51.3485 23.0032 50.9188C22.9409 50.494 22.8786 50.1433 22.8661 50.1433C22.8536 50.1433 21.7524 51.4374 20.4227 53.0181Z" fill="#F28F1F"/>
<g filter="url(#filter2_d_709_49)">
<path d="M425.855 53.489C409.555 53.489 401.66 41.4351 401.66 29.1057C401.66 16.2252 410.286 3.06921 426.878 3.06921C430.533 3.06921 434.042 3.55137 436.015 6.23767H435.796C434.042 6.23767 420.811 6.58207 416.499 17.1895C415.037 20.8401 414.379 24.1463 414.379 27.0393C414.379 35.9247 420.373 41.0218 426.513 41.0218C431.337 41.0218 436.161 37.8534 438.135 30.9654C438.574 29.4501 438.72 28.0725 438.72 26.6949C438.72 18.0849 431.556 12.0235 431.556 12.0235C432.945 11.6791 434.334 11.5414 435.577 11.5414C445.298 11.5414 451 20.5646 451 30.2766C451 41.4351 443.398 53.489 425.855 53.489Z" fill="url(#paint2_linear_709_49)"/>
</g>
<g filter="url(#filter3_d_709_49)">
<path d="M395.129 53.5575C384.896 53.5575 373.932 52.9376 366.33 47.9783C361.725 44.9476 357.047 37.5775 357.047 28.692C357.12 7.82156 372.543 3 384.823 3C391.767 3 397.834 4.58423 399.369 5.61742L401.342 13.7452C397.176 11.8855 392.936 11.0589 389.062 11.0589C388.039 11.0589 387.016 11.1278 385.992 11.2655C374.297 12.6431 368.45 20.2887 368.45 27.7277C368.45 35.3045 374.516 42.5368 386.504 42.5368C387.454 42.5368 388.405 42.4679 389.428 42.3991L389.355 31.3783C389.209 31.1028 389.72 27.8655 385.7 27.8655H401.635C401.635 34.409 401.416 40.8837 401.416 47.4273C401.854 49.7692 403.024 52.0422 405.29 53.4887L395.129 53.5575Z" fill="url(#paint3_linear_709_49)"/>
</g>
<g filter="url(#filter4_d_709_49)">
<path d="M358.371 56.5886C343.972 54.6599 332.276 37.7845 323.212 20.8401V53.489H307.936C310.494 53.1446 312.614 52.1114 314.149 50.045V6.51318C312.614 4.4468 310.494 3.41361 307.936 3.06921H314.587C327.525 3.06921 339.074 29.0368 345.287 36.889V6.65095C343.752 4.51568 341.559 3.41361 339.001 3.06921H360.71C358.152 3.41361 355.959 4.51568 354.424 6.65095V51.4915C354.424 53.9023 358.371 56.5886 358.371 56.5886Z" fill="url(#paint4_linear_709_49)"/>
</g>
<g filter="url(#filter5_d_709_49)">
<path d="M311.586 53.489H286.807C289.365 53.1446 291.558 52.0425 293.093 49.9073V6.65095C291.558 4.51568 289.365 3.41361 286.807 3.06921H311.586C309.028 3.41361 306.835 4.51568 305.3 6.65095V49.9073C306.835 52.0425 309.028 53.1446 311.586 53.489Z" fill="url(#paint5_linear_709_49)"/>
</g>
<g filter="url(#filter6_d_709_49)">
<path d="M275.569 53.4887H246.55V6.71955C245.015 4.58428 242.895 3.55109 240.337 3.13782H275.057C281.928 3.13782 286.752 7.95938 286.752 13.883C286.752 20.2199 282.074 24.6971 275.569 24.6971C283.756 24.6971 290.48 31.1718 290.48 39.0929C290.48 47.014 283.756 53.4887 275.569 53.4887ZM269.648 42.1236C274.911 42.1236 277.616 38.7485 277.616 35.3045C277.616 31.7228 274.692 28.0033 268.771 28.0033C266.944 28.0033 264.897 28.3477 262.485 29.1743C262.85 26.9012 264.02 25.5925 265.482 24.6971C267.601 23.3195 270.306 22.6996 272.28 20.9776C274.034 19.4623 275.277 17.2581 275.277 15.1228C275.277 12.5743 273.376 10.0258 268.04 8.99257H256.564L256.418 42.1236H269.648Z" fill="url(#paint6_linear_709_49)"/>
</g>
<g filter="url(#filter7_d_709_49)">
<path d="M241.662 56.5886C227.262 54.6599 215.567 37.7845 206.503 20.8401V53.489H191.226C193.784 53.1446 195.904 52.1114 197.439 50.045V6.51318C195.904 4.4468 193.784 3.41361 191.226 3.06921H197.878C210.815 3.06921 222.364 29.0368 228.578 36.889V6.65095C227.043 4.51568 224.85 3.41361 222.291 3.06921H244.001C241.442 3.41361 239.249 4.51568 237.714 6.65095V51.4915C237.714 53.9023 241.662 56.5886 241.662 56.5886Z" fill="url(#paint7_linear_709_49)"/>
</g>
<g filter="url(#filter8_d_709_49)">
<path d="M169.736 53.489C153.435 53.489 145.541 41.4351 145.541 29.1057C145.541 16.2252 154.166 3.06921 170.759 3.06921C174.414 3.06921 177.922 3.55137 179.896 6.23767H179.677C177.922 6.23767 164.692 6.58207 160.379 17.1895C158.917 20.8401 158.26 24.1463 158.26 27.0393C158.26 35.9247 164.253 41.0218 170.393 41.0218C175.218 41.0218 180.042 37.8534 182.016 30.9654C182.454 29.4501 182.6 28.0725 182.6 26.6949C182.6 18.0849 175.437 12.0235 175.437 12.0235C176.826 11.6791 178.215 11.5414 179.457 11.5414C189.179 11.5414 194.88 20.5646 194.88 30.2766C194.88 41.4351 187.278 53.489 169.736 53.489Z" fill="url(#paint8_linear_709_49)"/>
</g>
<g filter="url(#filter9_d_709_49)">
<path d="M136.498 53.4889H111.719C114.277 53.1445 116.47 52.0424 118.005 49.9072V14.1587C110.037 14.1587 100.389 14.5031 99 16.9139L103.386 3.27576H144.831L149.217 16.9139C147.828 14.5031 138.252 14.1587 130.212 14.1587V49.9072C131.747 52.0424 133.94 53.1445 136.498 53.4889Z" fill="url(#paint9_linear_709_49)"/>
</g>
<path d="M105.984 79.8736C106.229 80.3003 106.491 80.679 106.768 81.0096C107.056 81.3296 107.371 81.5803 107.712 81.7616C108.053 81.9323 108.437 82.0176 108.864 82.0176C109.376 82.0176 109.792 81.879 110.112 81.6016C110.432 81.3243 110.592 80.967 110.592 80.5296C110.592 80.1136 110.491 79.783 110.288 79.5376C110.085 79.2816 109.803 79.0683 109.44 78.8976C109.088 78.7163 108.677 78.5403 108.208 78.3696C107.931 78.2736 107.621 78.1456 107.28 77.9856C106.939 77.815 106.613 77.607 106.304 77.3616C105.995 77.1056 105.739 76.7963 105.536 76.4336C105.333 76.0603 105.232 75.6123 105.232 75.0896C105.232 74.4923 105.387 73.9696 105.696 73.5216C106.005 73.063 106.421 72.711 106.944 72.4656C107.477 72.2096 108.08 72.0816 108.752 72.0816C109.413 72.0816 109.989 72.199 110.48 72.4336C110.971 72.6683 111.381 72.967 111.712 73.3296C112.053 73.6923 112.32 74.071 112.512 74.4656L110.976 75.3296C110.837 75.0523 110.661 74.7963 110.448 74.5616C110.235 74.3163 109.984 74.1243 109.696 73.9856C109.419 73.8363 109.093 73.7616 108.72 73.7616C108.197 73.7616 107.813 73.8843 107.568 74.1296C107.323 74.3643 107.2 74.6416 107.2 74.9616C107.2 75.2496 107.285 75.511 107.456 75.7456C107.637 75.9696 107.915 76.183 108.288 76.3856C108.661 76.5883 109.147 76.7963 109.744 77.0096C110.075 77.127 110.405 77.2763 110.736 77.4576C111.077 77.639 111.387 77.8683 111.664 78.1456C111.941 78.4123 112.16 78.727 112.32 79.0896C112.491 79.4523 112.576 79.879 112.576 80.3696C112.576 80.8923 112.475 81.3616 112.272 81.7776C112.069 82.1936 111.792 82.5456 111.44 82.8336C111.088 83.111 110.688 83.3243 110.24 83.4736C109.803 83.6336 109.344 83.7136 108.864 83.7136C108.203 83.7136 107.589 83.5856 107.024 83.3296C106.469 83.063 105.984 82.711 105.568 82.2736C105.152 81.8363 104.821 81.3616 104.576 80.8496L105.984 79.8736ZM121.554 76.6576L120.786 83.4736H118.834L120.37 71.7136L124.962 79.3136L129.57 71.7136L131.106 83.4736H129.154L128.37 76.6576L124.962 82.4336L121.554 76.6576ZM139.246 80.5936L139.598 78.9936H144.798L145.166 80.5936H139.246ZM142.174 75.4416L140.414 79.5536L140.382 79.9696L138.83 83.4736H136.702L142.174 71.6496L147.646 83.4736H145.518L143.998 80.0656L143.95 79.6016L142.174 75.4416ZM156.213 78.1296H158.261L162.053 83.4736H159.781L156.213 78.1296ZM153.909 72.2736H155.797V83.4736H153.909V72.2736ZM155.029 73.9056V72.2736H157.365C158.176 72.2736 158.88 72.4176 159.477 72.7056C160.085 72.9936 160.555 73.399 160.885 73.9216C161.216 74.4336 161.381 75.0416 161.381 75.7456C161.381 76.4496 161.216 77.063 160.885 77.5856C160.555 78.1083 160.085 78.5136 159.477 78.8016C158.88 79.0896 158.176 79.2336 157.365 79.2336H155.029V77.6816H157.285C157.712 77.6816 158.085 77.607 158.405 77.4576C158.736 77.3083 158.992 77.095 159.173 76.8176C159.355 76.5296 159.445 76.1883 159.445 75.7936C159.445 75.3883 159.355 75.047 159.173 74.7696C158.992 74.4923 158.736 74.279 158.405 74.1296C158.085 73.9803 157.712 73.9056 157.285 73.9056H155.029ZM167.265 74.0176V72.2736H175.073V74.0176H172.113V83.4736H170.209V74.0176H167.265ZM192.556 77.8736C192.556 78.663 192.732 79.3563 193.084 79.9536C193.447 80.551 193.916 81.015 194.492 81.3456C195.079 81.6656 195.714 81.8256 196.396 81.8256C196.93 81.8256 197.41 81.7563 197.836 81.6176C198.263 81.479 198.647 81.2923 198.988 81.0576C199.34 80.8123 199.644 80.5403 199.9 80.2416V82.4816C199.431 82.8656 198.924 83.159 198.38 83.3616C197.836 83.5643 197.154 83.6656 196.332 83.6656C195.511 83.6656 194.743 83.527 194.028 83.2496C193.324 82.9723 192.711 82.5723 192.188 82.0496C191.666 81.527 191.255 80.9136 190.956 80.2096C190.668 79.495 190.524 78.7163 190.524 77.8736C190.524 77.031 190.668 76.2576 190.956 75.5536C191.255 74.839 191.666 74.2203 192.188 73.6976C192.711 73.175 193.324 72.775 194.028 72.4976C194.743 72.2203 195.511 72.0816 196.332 72.0816C197.154 72.0816 197.836 72.183 198.38 72.3856C198.924 72.5883 199.431 72.8816 199.9 73.2656V75.5056C199.644 75.207 199.34 74.9403 198.988 74.7056C198.647 74.4603 198.263 74.2683 197.836 74.1296C197.41 73.991 196.93 73.9216 196.396 73.9216C195.714 73.9216 195.079 74.087 194.492 74.4176C193.916 74.7376 193.447 75.1963 193.084 75.7936C192.732 76.3803 192.556 77.0736 192.556 77.8736ZM208.707 77.8736C208.707 78.6416 208.867 79.3296 209.187 79.9376C209.517 80.535 209.971 81.0043 210.547 81.3456C211.123 81.687 211.779 81.8576 212.515 81.8576C213.261 81.8576 213.917 81.687 214.483 81.3456C215.059 81.0043 215.507 80.535 215.827 79.9376C216.157 79.3296 216.323 78.6416 216.323 77.8736C216.323 77.1056 216.163 76.423 215.843 75.8256C215.523 75.2176 215.075 74.743 214.499 74.4016C213.933 74.0603 213.272 73.8896 212.515 73.8896C211.779 73.8896 211.123 74.0603 210.547 74.4016C209.971 74.743 209.517 75.2176 209.187 75.8256C208.867 76.423 208.707 77.1056 208.707 77.8736ZM206.707 77.8736C206.707 77.031 206.851 76.2576 207.139 75.5536C207.427 74.8496 207.832 74.2416 208.355 73.7296C208.888 73.207 209.507 72.8016 210.211 72.5136C210.925 72.2256 211.693 72.0816 212.515 72.0816C213.357 72.0816 214.131 72.2256 214.835 72.5136C215.539 72.8016 216.152 73.207 216.675 73.7296C217.208 74.2416 217.619 74.8496 217.907 75.5536C218.195 76.2576 218.339 77.031 218.339 77.8736C218.339 78.7056 218.195 79.479 217.907 80.1936C217.619 80.9083 217.213 81.527 216.691 82.0496C216.168 82.5723 215.549 82.983 214.835 83.2816C214.131 83.5696 213.357 83.7136 212.515 83.7136C211.683 83.7136 210.909 83.5696 210.195 83.2816C209.48 82.983 208.861 82.5723 208.339 82.0496C207.827 81.527 207.427 80.9083 207.139 80.1936C206.851 79.479 206.707 78.7056 206.707 77.8736ZM233.471 72.2736H235.327V84.0336L227.151 75.9536V83.4736H225.295V71.7136L233.471 79.7936V72.2736ZM241.81 74.0176V72.2736H249.618V74.0176H246.658V83.4736H244.754V74.0176H241.81ZM258.417 78.1296H260.465L264.257 83.4736H261.985L258.417 78.1296ZM256.113 72.2736H258.001V83.4736H256.113V72.2736ZM257.233 73.9056V72.2736H259.569C260.38 72.2736 261.084 72.4176 261.681 72.7056C262.289 72.9936 262.758 73.399 263.089 73.9216C263.42 74.4336 263.585 75.0416 263.585 75.7456C263.585 76.4496 263.42 77.063 263.089 77.5856C262.758 78.1083 262.289 78.5136 261.681 78.8016C261.084 79.0896 260.38 79.2336 259.569 79.2336H257.233V77.6816H259.489C259.916 77.6816 260.289 77.607 260.609 77.4576C260.94 77.3083 261.196 77.095 261.377 76.8176C261.558 76.5296 261.649 76.1883 261.649 75.7936C261.649 75.3883 261.558 75.047 261.377 74.7696C261.196 74.4923 260.94 74.279 260.609 74.1296C260.289 73.9803 259.916 73.9056 259.489 73.9056H257.233ZM272.093 80.5936L272.445 78.9936H277.645L278.013 80.5936H272.093ZM275.021 75.4416L273.261 79.5536L273.229 79.9696L271.677 83.4736H269.549L275.021 71.6496L280.493 83.4736H278.365L276.845 80.0656L276.797 79.6016L275.021 75.4416ZM287.823 77.8736C287.823 78.663 287.999 79.3563 288.351 79.9536C288.714 80.551 289.183 81.015 289.759 81.3456C290.346 81.6656 290.98 81.8256 291.663 81.8256C292.196 81.8256 292.676 81.7563 293.103 81.6176C293.53 81.479 293.914 81.2923 294.255 81.0576C294.607 80.8123 294.911 80.5403 295.167 80.2416V82.4816C294.698 82.8656 294.191 83.159 293.647 83.3616C293.103 83.5643 292.42 83.6656 291.599 83.6656C290.778 83.6656 290.01 83.527 289.295 83.2496C288.591 82.9723 287.978 82.5723 287.455 82.0496C286.932 81.527 286.522 80.9136 286.223 80.2096C285.935 79.495 285.791 78.7163 285.791 77.8736C285.791 77.031 285.935 76.2576 286.223 75.5536C286.522 74.839 286.932 74.2203 287.455 73.6976C287.978 73.175 288.591 72.775 289.295 72.4976C290.01 72.2203 290.778 72.0816 291.599 72.0816C292.42 72.0816 293.103 72.183 293.647 72.3856C294.191 72.5883 294.698 72.8816 295.167 73.2656V75.5056C294.911 75.207 294.607 74.9403 294.255 74.7056C293.914 74.4603 293.53 74.2683 293.103 74.1296C292.676 73.991 292.196 73.9216 291.663 73.9216C290.98 73.9216 290.346 74.087 289.759 74.4176C289.183 74.7376 288.714 75.1963 288.351 75.7936C287.999 76.3803 287.823 77.0736 287.823 77.8736ZM301.009 74.0176V72.2736H308.817V74.0176H305.857V83.4736H303.953V74.0176H301.009ZM325.229 72.2736H327.117V81.7776H331.565V83.4736H325.229V72.2736ZM338.927 77.8736C338.927 78.6416 339.087 79.3296 339.407 79.9376C339.738 80.535 340.191 81.0043 340.767 81.3456C341.343 81.687 341.999 81.8576 342.735 81.8576C343.482 81.8576 344.138 81.687 344.703 81.3456C345.279 81.0043 345.727 80.535 346.047 79.9376C346.378 79.3296 346.543 78.6416 346.543 77.8736C346.543 77.1056 346.383 76.423 346.063 75.8256C345.743 75.2176 345.295 74.743 344.719 74.4016C344.154 74.0603 343.493 73.8896 342.735 73.8896C341.999 73.8896 341.343 74.0603 340.767 74.4016C340.191 74.743 339.738 75.2176 339.407 75.8256C339.087 76.423 338.927 77.1056 338.927 77.8736ZM336.927 77.8736C336.927 77.031 337.071 76.2576 337.359 75.5536C337.647 74.8496 338.053 74.2416 338.575 73.7296C339.109 73.207 339.727 72.8016 340.431 72.5136C341.146 72.2256 341.914 72.0816 342.735 72.0816C343.578 72.0816 344.351 72.2256 345.055 72.5136C345.759 72.8016 346.373 73.207 346.895 73.7296C347.429 74.2416 347.839 74.8496 348.127 75.5536C348.415 76.2576 348.559 77.031 348.559 77.8736C348.559 78.7056 348.415 79.479 348.127 80.1936C347.839 80.9083 347.434 81.527 346.911 82.0496C346.389 82.5723 345.77 82.983 345.055 83.2816C344.351 83.5696 343.578 83.7136 342.735 83.7136C341.903 83.7136 341.13 83.5696 340.415 83.2816C339.701 82.983 339.082 82.5723 338.559 82.0496C338.047 81.527 337.647 80.9083 337.359 80.1936C337.071 79.479 336.927 78.7056 336.927 77.8736ZM353.911 74.0176V72.2736H361.719V74.0176H358.759V83.4736H356.855V74.0176H353.911ZM367.578 74.0176V72.2736H375.386V74.0176H372.426V83.4736H370.522V74.0176H367.578ZM383.049 83.4736V81.8096H388.697V83.4736H383.049ZM383.049 73.9376V72.2736H388.697V73.9376H383.049ZM383.049 78.2896V76.6576H388.377V78.2896H383.049ZM381.881 72.2736H383.737V83.4736H381.881V72.2736ZM398.445 78.1296H400.493L404.285 83.4736H402.013L398.445 78.1296ZM396.141 72.2736H398.029V83.4736H396.141V72.2736ZM397.261 73.9056V72.2736H399.597C400.408 72.2736 401.112 72.4176 401.709 72.7056C402.317 72.9936 402.786 73.399 403.117 73.9216C403.448 74.4336 403.613 75.0416 403.613 75.7456C403.613 76.4496 403.448 77.063 403.117 77.5856C402.786 78.1083 402.317 78.5136 401.709 78.8016C401.112 79.0896 400.408 79.2336 399.597 79.2336H397.261V77.6816H399.517C399.944 77.6816 400.317 77.607 400.637 77.4576C400.968 77.3083 401.224 77.095 401.405 76.8176C401.586 76.5296 401.677 76.1883 401.677 75.7936C401.677 75.3883 401.586 75.047 401.405 74.7696C401.224 74.4923 400.968 74.279 400.637 74.1296C400.317 73.9803 399.944 73.9056 399.517 73.9056H397.261ZM416.937 72.2736H419.097L415.289 78.7536V83.4736H413.369V78.7696L409.577 72.2736H411.721L414.329 77.0736L416.937 72.2736Z" fill="#F28F1F"/>
<defs>
<filter id="filter0_d_709_49" x="0.754681" y="1.68071" width="50.6183" height="58.4231" filterUnits="userSpaceOnUse" color-interpolation-filters="sRGB">
<feFlood flood-opacity="0" result="BackgroundImageFix"/>
<feColorMatrix in="SourceAlpha" type="matrix" values="0 0 0 0 0 0 0 0 0 0 0 0 0 0 0 0 0 0 127 0" result="hardAlpha"/>
<feOffset dx="-0.74844" dy="-0.74844"/>
<feGaussianBlur stdDeviation="0.74844"/>
<feComposite in2="hardAlpha" operator="out"/>
<feColorMatrix type="matrix" values="0 0 0 0 0.6375 0 0 0 0 0.893382 0 0 0 0 1 0 0 0 0.8 0"/>
<feBlend mode="normal" in2="BackgroundImageFix" result="effect1_dropShadow_709_49"/>
<feBlend mode="normal" in="SourceGraphic" in2="effect1_dropShadow_709_49" result="shape"/>
</filter>
<filter id="filter1_d_709_49" x="34.2516" y="0.754681" width="50.9938" height="58.5578" filterUnits="userSpaceOnUse" color-interpolation-filters="sRGB">
<feFlood flood-opacity="0" result="BackgroundImageFix"/>
<feColorMatrix in="SourceAlpha" type="matrix" values="0 0 0 0 0 0 0 0 0 0 0 0 0 0 0 0 0 0 127 0" result="hardAlpha"/>
<feOffset dx="0.74844" dy="-0.74844"/>
<feGaussianBlur stdDeviation="0.74844"/>
<feComposite in2="hardAlpha" operator="out"/>
<feColorMatrix type="matrix" values="0 0 0 0 0.6375 0 0 0 0 0.893382 0 0 0 0 1 0 0 0 0.8 0"/>
<feBlend mode="normal" in2="BackgroundImageFix" result="effect1_dropShadow_709_49"/>
<feBlend mode="normal" in="SourceGraphic" in2="effect1_dropShadow_709_49" result="shape"/>
</filter>
<filter id="filter2_d_709_49" x="399.005" y="0.413793" width="52.9998" height="54.0803" filterUnits="userSpaceOnUse" color-interpolation-filters="sRGB">
<feFlood flood-opacity="0" result="BackgroundImageFix"/>
<feColorMatrix in="SourceAlpha" type="matrix" values="0 0 0 0 0 0 0 0 0 0 0 0 0 0 0 0 0 0 127 0" result="hardAlpha"/>
<feOffset dx="-0.825175" dy="-0.825175"/>
<feGaussianBlur stdDeviation="0.915123"/>
<feComposite in2="hardAlpha" operator="out"/>
<feColorMatrix type="matrix" values="0 0 0 0 0.6375 0 0 0 0 0.893382 0 0 0 0 1 0 0 0 1 0"/>
<feBlend mode="normal" in2="BackgroundImageFix" result="effect1_dropShadow_709_49"/>
<feBlend mode="normal" in="SourceGraphic" in2="effect1_dropShadow_709_49" result="shape"/>
</filter>
<filter id="filter3_d_709_49" x="354.391" y="0.34458" width="51.9034" height="54.218" filterUnits="userSpaceOnUse" color-interpolation-filters="sRGB">
<feFlood flood-opacity="0" result="BackgroundImageFix"/>
<feColorMatrix in="SourceAlpha" type="matrix" values="0 0 0 0 0 0 0 0 0 0 0 0 0 0 0 0 0 0 127 0" result="hardAlpha"/>
<feOffset dx="-0.825175" dy="-0.825175"/>
<feGaussianBlur stdDeviation="0.915123"/>
<feComposite in2="hardAlpha" operator="out"/>
<feColorMatrix type="matrix" values="0 0 0 0 0.6375 0 0 0 0 0.893382 0 0 0 0 1 0 0 0 1 0"/>
<feBlend mode="normal" in2="BackgroundImageFix" result="effect1_dropShadow_709_49"/>
<feBlend mode="normal" in="SourceGraphic" in2="effect1_dropShadow_709_49" result="shape"/>
</filter>
<filter id="filter4_d_709_49" x="305.28" y="0.413793" width="56.4354" height="57.1799" filterUnits="userSpaceOnUse" color-interpolation-filters="sRGB">
<feFlood flood-opacity="0" result="BackgroundImageFix"/>
<feColorMatrix in="SourceAlpha" type="matrix" values="0 0 0 0 0 0 0 0 0 0 0 0 0 0 0 0 0 0 127 0" result="hardAlpha"/>
<feOffset dx="-0.825175" dy="-0.825175"/>
<feGaussianBlur stdDeviation="0.915123"/>
<feComposite in2="hardAlpha" operator="out"/>
<feColorMatrix type="matrix" values="0 0 0 0 0.6375 0 0 0 0 0.893382 0 0 0 0 1 0 0 0 1 0"/>
<feBlend mode="normal" in2="BackgroundImageFix" result="effect1_dropShadow_709_49"/>
<feBlend mode="normal" in="SourceGraphic" in2="effect1_dropShadow_709_49" result="shape"/>
</filter>
<filter id="filter5_d_709_49" x="284.151" y="0.413793" width="28.4398" height="54.0803" filterUnits="userSpaceOnUse" color-interpolation-filters="sRGB">
<feFlood flood-opacity="0" result="BackgroundImageFix"/>
<feColorMatrix in="SourceAlpha" type="matrix" values="0 0 0 0 0 0 0 0 0 0 0 0 0 0 0 0 0 0 127 0" result="hardAlpha"/>
<feOffset dx="-0.825175" dy="-0.825175"/>
<feGaussianBlur stdDeviation="0.915123"/>
<feComposite in2="hardAlpha" operator="out"/>
<feColorMatrix type="matrix" values="0 0 0 0 0.6375 0 0 0 0 0.893382 0 0 0 0 1 0 0 0 1 0"/>
<feBlend mode="normal" in2="BackgroundImageFix" result="effect1_dropShadow_709_49"/>
<feBlend mode="normal" in="SourceGraphic" in2="effect1_dropShadow_709_49" result="shape"/>
</filter>
<filter id="filter6_d_709_49" x="237.681" y="0.482397" width="53.804" height="54.0114" filterUnits="userSpaceOnUse" color-interpolation-filters="sRGB">
<feFlood flood-opacity="0" result="BackgroundImageFix"/>
<feColorMatrix in="SourceAlpha" type="matrix" values="0 0 0 0 0 0 0 0 0 0 0 0 0 0 0 0 0 0 127 0" result="hardAlpha"/>
<feOffset dx="-0.825175" dy="-0.825175"/>
<feGaussianBlur stdDeviation="0.915123"/>
<feComposite in2="hardAlpha" operator="out"/>
<feColorMatrix type="matrix" values="0 0 0 0 0.6375 0 0 0 0 0.893382 0 0 0 0 1 0 0 0 1 0"/>
<feBlend mode="normal" in2="BackgroundImageFix" result="effect1_dropShadow_709_49"/>
<feBlend mode="normal" in="SourceGraphic" in2="effect1_dropShadow_709_49" result="shape"/>
</filter>
<filter id="filter7_d_709_49" x="188.57" y="0.413793" width="56.4354" height="57.1799" filterUnits="userSpaceOnUse" color-interpolation-filters="sRGB">
<feFlood flood-opacity="0" result="BackgroundImageFix"/>
<feColorMatrix in="SourceAlpha" type="matrix" values="0 0 0 0 0 0 0 0 0 0 0 0 0 0 0 0 0 0 127 0" result="hardAlpha"/>
<feOffset dx="-0.825175" dy="-0.825175"/>
<feGaussianBlur stdDeviation="0.915123"/>
<feComposite in2="hardAlpha" operator="out"/>
<feColorMatrix type="matrix" values="0 0 0 0 0.6375 0 0 0 0 0.893382 0 0 0 0 1 0 0 0 1 0"/>
<feBlend mode="normal" in2="BackgroundImageFix" result="effect1_dropShadow_709_49"/>
<feBlend mode="normal" in="SourceGraphic" in2="effect1_dropShadow_709_49" result="shape"/>
</filter>
<filter id="filter8_d_709_49" x="142.886" y="0.413793" width="52.9998" height="54.0803" filterUnits="userSpaceOnUse" color-interpolation-filters="sRGB">
<feFlood flood-opacity="0" result="BackgroundImageFix"/>
<feColorMatrix in="SourceAlpha" type="matrix" values="0 0 0 0 0 0 0 0 0 0 0 0 0 0 0 0 0 0 127 0" result="hardAlpha"/>
<feOffset dx="-0.825175" dy="-0.825175"/>
<feGaussianBlur stdDeviation="0.915123"/>
<feComposite in2="hardAlpha" operator="out"/>
<feColorMatrix type="matrix" values="0 0 0 0 0.6375 0 0 0 0 0.893382 0 0 0 0 1 0 0 0 1 0"/>
<feBlend mode="normal" in2="BackgroundImageFix" result="effect1_dropShadow_709_49"/>
<feBlend mode="normal" in="SourceGraphic" in2="effect1_dropShadow_709_49" result="shape"/>
</filter>
<filter id="filter9_d_709_49" x="96.3446" y="0.620336" width="53.877" height="53.8736" filterUnits="userSpaceOnUse" color-interpolation-filters="sRGB">
<feFlood flood-opacity="0" result="BackgroundImageFix"/>
<feColorMatrix in="SourceAlpha" type="matrix" values="0 0 0 0 0 0 0 0 0 0 0 0 0 0 0 0 0 0 127 0" result="hardAlpha"/>
<feOffset dx="-0.825175" dy="-0.825175"/>
<feGaussianBlur stdDeviation="0.915123"/>
<feComposite in2="hardAlpha" operator="out"/>
<feColorMatrix type="matrix" values="0 0 0 0 0.6375 0 0 0 0 0.893382 0 0 0 0 1 0 0 0 1 0"/>
<feBlend mode="normal" in2="BackgroundImageFix" result="effect1_dropShadow_709_49"/>
<feBlend mode="normal" in="SourceGraphic" in2="effect1_dropShadow_709_49" result="shape"/>
</filter>
<linearGradient id="paint0_linear_709_49" x1="54.6568" y1="19.7077" x2="-9.17502" y2="46.7466" gradientUnits="userSpaceOnUse">
<stop stop-color="#F28F1F"/>
<stop offset="0.4375" stop-color="#F46C20"/>
<stop offset="1" stop-color="#E1400B"/>
</linearGradient>
<linearGradient id="paint1_linear_709_49" x1="39.6545" y1="30.4838" x2="98.4757" y2="37.0666" gradientUnits="userSpaceOnUse">
<stop stop-color="#F28F1F"/>
<stop offset="0.4375" stop-color="#F46C20"/>
<stop offset="1" stop-color="#E1400B"/>
</linearGradient>
<linearGradient id="paint2_linear_709_49" x1="113.4" y1="6.95448" x2="444.107" y2="52.2571" gradientUnits="userSpaceOnUse">
<stop stop-color="#E23E0A"/>
<stop offset="0.379616" stop-color="#D9601C"/>
<stop offset="0.648958" stop-color="#F49320"/>
<stop offset="0.925" stop-color="#FF5C00"/>
</linearGradient>
<linearGradient id="paint3_linear_709_49" x1="113.4" y1="6.95442" x2="444.107" y2="52.257" gradientUnits="userSpaceOnUse">
<stop stop-color="#E23E0A"/>
<stop offset="0.379616" stop-color="#D9601C"/>
<stop offset="0.648958" stop-color="#F49320"/>
<stop offset="0.925" stop-color="#FF5C00"/>
</linearGradient>
<linearGradient id="paint4_linear_709_49" x1="113.4" y1="6.95446" x2="444.107" y2="52.2571" gradientUnits="userSpaceOnUse">
<stop stop-color="#E23E0A"/>
<stop offset="0.379616" stop-color="#D9601C"/>
<stop offset="0.648958" stop-color="#F49320"/>
<stop offset="0.925" stop-color="#FF5C00"/>
</linearGradient>
<linearGradient id="paint5_linear_709_49" x1="113.4" y1="6.95446" x2="444.107" y2="52.2571" gradientUnits="userSpaceOnUse">
<stop stop-color="#E23E0A"/>
<stop offset="0.379616" stop-color="#D9601C"/>
<stop offset="0.648958" stop-color="#F49320"/>
<stop offset="0.925" stop-color="#FF5C00"/>
</linearGradient>
<linearGradient id="paint6_linear_709_49" x1="113.401" y1="6.95444" x2="444.108" y2="52.257" gradientUnits="userSpaceOnUse">
<stop stop-color="#E23E0A"/>
<stop offset="0.379616" stop-color="#D9601C"/>
<stop offset="0.648958" stop-color="#F49320"/>
<stop offset="0.925" stop-color="#FF5C00"/>
</linearGradient>
<linearGradient id="paint7_linear_709_49" x1="113.4" y1="6.9545" x2="444.107" y2="52.2571" gradientUnits="userSpaceOnUse">
<stop stop-color="#E23E0A"/>
<stop offset="0.379616" stop-color="#D9601C"/>
<stop offset="0.648958" stop-color="#F49320"/>
<stop offset="0.925" stop-color="#FF5C00"/>
</linearGradient>
<linearGradient id="paint8_linear_709_49" x1="113.4" y1="6.95447" x2="444.107" y2="52.2571" gradientUnits="userSpaceOnUse">
<stop stop-color="#E23E0A"/>
<stop offset="0.379616" stop-color="#D9601C"/>
<stop offset="0.648958" stop-color="#F49320"/>
<stop offset="0.925" stop-color="#FF5C00"/>
</linearGradient>
<linearGradient id="paint9_linear_709_49" x1="113.4" y1="6.95457" x2="444.107" y2="52.2572" gradientUnits="userSpaceOnUse">
<stop stop-color="#E23E0A"/>
<stop offset="0.379616" stop-color="#D9601C"/>
<stop offset="0.648958" stop-color="#F49320"/>
<stop offset="0.925" stop-color="#FF5C00"/>
</linearGradient>
</defs>
</svg>
